<?xml version="1.0" encoding="utf-8"?>
<!-- Generator: Adobe Illustrator 27.4.0, SVG Export Plug-In . SVG Version: 6.00 Build 0)  -->
<svg version="1.1" id="Ebene_1" xmlns="http://www.w3.org/2000/svg" xmlns:xlink="http://www.w3.org/1999/xlink" x="0px" y="0px"
	 viewBox="0 0 789.3 310.3" style="enable-background:new 0 0 789.3 310.3;" xml:space="preserve">
<style type="text/css">
	.st0{fill:#C5C5C6;}
	.st1{fill:#019FE3;}
	.st2{fill:#585857;}
</style>
<g>
	<path class="st0" d="M509.5,46.2c0.3,2,0.4,40.6,0.1,45c-0.3,0.7-0.9,1.1-1.7,1.4c-6.8,2.7-13.6,5.3-20.3,8.1c-7.4,3-14.7,6-22.1,9
		c-7.9,3.2-15.9,6.3-23.8,9.5c-7,2.8-14,5.6-21,8.5c-4.6,1.9-9.2,3.7-13.9,5.5c-3.2,1.3-6.4,2.6-9.7,4c-0.7,0.3-1.4,0.7-2.1,0.3
		c0-0.1-0.1-0.1-0.1-0.2c0-0.1-0.1-0.1-0.1-0.2c0-0.4-0.1-0.8-0.1-1.2c0-14.4,0-28.8,0-43.3c0.4-0.3,0.7-0.6,1.2-0.8
		c11.5-4.6,22.9-9.2,34.4-13.8c11.2-4.5,22.5-8.9,33.7-13.4c10.4-4.2,20.8-8.3,31.1-12.5c4.5-1.8,9.1-3.7,13.6-5.5
		C509,46.2,509.3,46.2,509.5,46.2z"/>
	<path class="st1" d="M394.7,45.9c-1,0.5-1.9,0.9-2.8,1.2c-7.8,3.1-15.6,6.3-23.4,9.4c-6.3,2.5-12.5,5-18.8,7.5
		c-0.5,0.2-1.1,0.4-1.6,0.6c-1.1,0.5-2,0.4-3.1-0.1c-5.6-2.3-11.3-4.5-16.9-6.8c-11.7-4.7-23.3-9.4-35-14.1
		c-1.1-0.5-2.3-0.9-3.5-1.4c0.3-0.3,0.5-0.6,0.7-0.7C325,27.8,359.6,13.9,394.5,0c0.1,0.6,0.2,1.1,0.2,1.5c0,0.7,0,1.5,0,2.2
		c0,13.1,0,26.2,0,39.2C394.7,43.9,394.7,44.8,394.7,45.9z"/>
	<path class="st0" d="M346.5,118.3c-0.7,0.4-1.3,0.1-1.9-0.2c-8.7-3.6-17.5-7.1-26.3-10.7c-6.8-2.8-13.7-5.5-20.5-8.2
		c-5.8-2.4-11.7-4.8-17.7-7.2c-0.5-0.4-0.3-1.2-0.3-1.9c0-3.7,0-7.3,0-11c0-10.1,0-20.2,0-30.2c0-0.8,0-1.6,0-2.7
		c11.4,4.4,22.4,9,33.4,13.4c11.1,4.4,22.2,8.8,33.3,13.3c0,0,0.1,0.1,0.1,0.2s0.1,0.1,0.1,0.2c0,14.7,0,29.3,0.1,44
		c0,0.2,0,0.5-0.1,0.7C346.7,118.1,346.6,118.2,346.5,118.3z"/>
	<path class="st1" d="M499.7,42.2c-37.1,15.3-54.9,22.3-57.1,22.7c-0.1-0.3-0.2-0.6-0.2-0.9c0-14.9,0-29.8,0-44.9
		c0.7,0.2,1.2,0.3,1.6,0.5c15.4,6.1,30.7,12.3,46.1,18.4c2.9,1.1,5.7,2.4,8.5,3.6C498.9,41.6,499.1,41.8,499.7,42.2z"/>
	<path class="st2" d="M535.2,240c-0.1-9-0.1-18-0.2-26.9c0-0.7,0-1.5,0-2.4c2.4-0.1,4.6-0.1,6.7,0c0.2,0.2,0.3,0.3,0.3,0.4
		c0,0.1,0.1,0.1,0.1,0.2c0,0.7,0.1,1.5,0.1,2.2c0,12.8,0,25.6-0.1,38.4c0,0.1-0.1,0.3-0.3,0.6c-2.1,0-4.2,0-6.6,0
		c-6-9.7-11.9-19.6-17.9-29.4c-0.2-0.3-0.5-0.6-0.9-1.3c0,0.7,0,1,0,1.3c0,9.7,0,19.5,0,29.3c-2.3,0.5-4.5,0.2-6.9,0.2
		c-0.1-14,0.1-27.8-0.1-41.6c1.2-0.7,2.3-0.3,3.5-0.4c1.2-0.1,2.3,0,3.5,0c6,9.9,12,19.7,17.9,29.5c0.1,0.5,0.2,1,1,0.8
		C535.2,240.6,535.2,240.3,535.2,240z"/>
	<path class="st2" d="M617.3,231c4.3,1.9,6.1,5.3,6.1,9.9c0,6.1-3.9,10-9.3,11c-2,0.4-4,0.6-6,0.6c-4.5,0.1-9,0-13.5,0
		c-0.4,0-0.8-0.1-1.2-0.1c-0.4-2-0.5-37.1-0.2-41.5c0.1-0.1,0.3-0.3,0.4-0.3c5.7,0,11.3-0.4,17,0.3c1.8,0.2,3.6,0.7,5.3,1.4
		c4.4,1.9,6.9,7.2,5.6,11.9c-0.7,2.7-2.5,4.5-4.8,5.8c-0.3,0.1-0.6,0.2-0.8,0.3C616.2,231.2,616.8,231,617.3,231z M600.3,246.9
		c0.5,0.1,0.8,0.1,1.1,0.1c2.7,0,5.5,0,8.2,0c5-0.1,7.2-2.8,6.7-7.7c-0.4-3.2-2.1-5.1-5.4-5.6c-0.7-0.1-1.3-0.1-2-0.1
		c-2.4,0-4.8,0-7.2,0c-0.5,0-0.9,0.1-1.5,0.2C600.3,238.2,600.3,242.4,600.3,246.9z M600.3,228c2.5,0.6,9.1,0.5,10.9-0.1
		c2.1-0.7,3.3-2.1,3.6-4.3c0.5-4.1-1.6-6.7-5.7-7.1c-0.9-0.1-1.8-0.1-2.7-0.1c-1.5,0-3,0-4.5,0c-0.5,0-0.9,0.1-1.5,0.2
		c0,0.6-0.1,1-0.1,1.4C600.3,221.2,600.3,224.5,600.3,228z"/>
	<path class="st2" d="M633.4,210.7c0.8,0,1.4-0.1,2.1-0.1c3.7,0,7.3,0,11,0c2.7,0,5.3,0.2,7.9,0.9c4.6,1.3,7.6,4.1,8.4,8.9
		c0.8,5.1-0.5,9.4-5.1,12.4c-0.5,0.3-1,0.6-1.6,1c0.2,0.5,0.3,1.1,0.6,1.6c2.4,4.7,4.9,9.3,7.3,13.9c0.5,0.9,0.9,1.9,1.5,3.1
		c-2.6,0.4-5,0.2-7.5,0.2c-3-5.5-5.5-11.3-8.5-16.9c-3,0-5.9,0-8.9,0c-0.1,0.6-0.2,1.2-0.2,1.7c0,4.2,0,8.3,0,12.5
		c0,0.8-0.1,1.6-0.1,2.6c-2.3,0.1-4.4,0.2-6.6,0c-0.5-0.9-0.3-1.8-0.3-2.7c0-9.7,0-19.3,0-29c0-2.7,0-5.5,0-8.2
		C633.3,212,633.3,211.4,633.4,210.7z M640.4,216.6c-0.2,1.5-0.1,2.9-0.1,4.4s-0.1,3,0,4.5s-0.3,3,0.3,4.4c3.2,0,6.2,0.1,9.3,0
		c2.1-0.1,4-0.8,5-2.8c1.3-2.5,1.4-5.1,0.2-7.7c-0.5-1.1-1.5-2-2.7-2.4c-0.8-0.3-1.8-0.6-2.7-0.6c-2.8-0.1-5.7-0.1-8.5-0.1
		C641,216.4,640.8,216.5,640.4,216.6z"/>
	<path class="st2" d="M41.6,231.5c0.3-2.7,0.4-5.5,0.8-8.2c0.4-2.2,1.3-4.3,2.6-6.2c3.8-5.4,9.2-7.5,15.6-6.9
		c5.2,0.5,9.5,2.8,12.5,7.3c1.5,2.3,2.4,4.8,2.7,7.4c0.5,4.5,0.6,9,0,13.5c-1.1,7.4-6.1,13.4-14.4,14.5c-6.2,0.8-11.6-0.8-15.6-5.8
		c-2.5-3.1-3.7-6.7-3.9-10.6c-0.1-1.7,0-3.3,0-5C41.7,231.5,41.6,231.5,41.6,231.5z M69.3,231.9c-0.1,0-0.1,0-0.2,0
		c-0.1-2-0.1-4-0.2-6c-0.6-6.7-5.2-10.6-11.6-9.9c-3.3,0.3-5.6,2.1-6.9,5c-0.9,2-1.5,4.2-1.5,6.5c0,2.8,0,5.7,0,8.5
		c0,1.9,0.5,3.8,1.3,5.6c1.1,2.4,2.7,4.4,5.3,5.3c4.4,1.5,9.7,0.2,12-4.8c0.4-0.8,0.8-1.7,0.9-2.6C68.8,237,69,234.4,69.3,231.9z"/>
	<path class="st2" d="M461.2,232c0,1.6,0.1,3.2,0,4.7c-0.5,5.6-2.7,10.3-7.5,13.5c-9,6.1-24.5,2.9-26.4-12c-0.6-4.6-0.7-9.1,0-13.7
		c1.5-9.7,9.8-15.6,19.5-14.2c8.3,1.2,14,8,14.4,16.9C461.3,228.8,461.2,230.4,461.2,232L461.2,232z M454.4,231.6
		c-0.2-2.5-0.2-4.8-0.6-7.1c-0.9-5.6-5.3-9-11-8.6c-3.5,0.3-5.9,2-7.4,5.1c-0.6,1.2-0.9,2.5-1.1,3.8c-0.7,4.1-0.5,8.3-0.2,12.4
		c0.1,1.6,0.6,3.3,1.3,4.8c1.7,3.2,4.2,5.3,8,5.4c3.9,0.1,7-1.4,8.9-4.8c0.7-1.2,1.1-2.6,1.4-4C454.1,236.3,454.2,233.9,454.4,231.6
		z"/>
	<path class="st2" d="M32.6,252.5c-2.3,0-4.4,0-6.7,0c-0.3-2.9-0.1-5.8-0.1-8.7s0-5.8,0-8.9c-0.7-0.1-1.4-0.3-2-0.3
		c-5.2,0-10.5,0-15.7,0c-0.2,0-0.3,0.1-0.7,0.2c0,0.5-0.2,1-0.2,1.6c0,4.5,0,9,0,13.5c0,0.8-0.1,1.6-0.1,2.5c-2.3,0-4.4,0-6.8,0
		c0-0.9-0.1-1.8-0.1-2.7c0-10.1,0-20.2,0-30.2c0-2.4-0.1-4.8-0.2-7.2c0-0.5,0-1,0-1.6c2.4-0.1,4.6-0.1,7,0.1c0.1,0.7,0.2,1.3,0.2,2
		c0,4.7,0,9.3,0,14c0,0.7,0.1,1.5,0.1,2.1c2.4,0.4,16.1,0.4,18.4,0c0-5.9,0-11.9,0-18c2.4-0.4,4.6-0.1,6.7-0.2
		C32.8,212.8,33,248.5,32.6,252.5z"/>
	<path class="st2" d="M157.7,252.5c-2.3,0-4.4,0-6.7,0c-0.3-1.5-0.1-3-0.1-4.5c0-1.4,0-2.8,0-4.2c0-1.5,0-3,0-4.5c0-1.4,0-2.8,0-4.2
		c-2-0.6-13.8-0.7-18.4-0.2c-0.1,0.5-0.2,1-0.2,1.6c0,4.5,0,9,0,13.5c0,0.8-0.1,1.6-0.1,2.5c-2.3,0.3-4.4,0.1-6.4,0.1
		c-0.2-0.2-0.3-0.3-0.3-0.3c0-0.1-0.1-0.1-0.1-0.2c0-13.5-0.1-27-0.1-40.5c0-0.2,0.1-0.5,0.2-0.8c2.2-0.3,4.4-0.2,6.8,0
		c0.1,3.1,0,6.1,0,9c0,3,0,6,0,8.9c1.8,0.5,13.2,0.6,18.4,0.2c0.1-0.6,0.2-1.2,0.2-1.9c0-4.6,0-9.2,0-13.7c0-0.8,0-1.6,0-2.5
		c1.2-0.4,2.3-0.2,3.3-0.2c1.1,0,2.2,0,3.4,0c0.1,0.5,0.3,1,0.3,1.5c0,13.2,0,26.3,0,39.5C157.8,251.8,157.7,252,157.7,252.5z"/>
	<path class="st2" d="M254.3,228.8c2.6,0.4,16.4,0.4,18.6-0.1c0-2.9,0-5.9,0-8.9s0-6,0-9.1c2.4-0.2,4.5-0.2,6.7,0
		c0.3,1.9,0.4,38.8,0.1,41.5c-1.8,0.5-4.4,0.5-6.8,0c0-1.9,0-3.7,0-5.6c0-2,0-4,0-6c0-1.9,0-3.8,0-5.7c-1.9-0.4-15.9-0.5-18.5-0.1
		c-0.3,2.8-0.1,5.7-0.1,8.6c0,2.9,0,5.8,0,8.8c-2.3,0.4-4.5,0.3-6.7,0.1c-0.4-1.9-0.6-37.5-0.2-41.6c1.1-0.6,2.3-0.2,3.4-0.3
		c1.1-0.1,2.1,0,3.3,0c0.4,1.6,0.2,3.1,0.2,4.6s0,3,0,4.5s0,3,0,4.5C254.3,225.7,254.3,227.2,254.3,228.8z"/>
	<path class="st2" d="M756.1,210.7c2.3-0.1,4.5,0,6.8,0c0.6,2.2,0.2,4.2,0.2,6.3c0.1,2.1,0,4.2,0,6.2c0,2.1,0,4.1,0,6.3
		c0.7,0.3,0.9-0.4,1.3-0.8c4.9-5.7,9.7-11.4,14.5-17.1c0.2-0.3,0.4-0.5,0.7-0.8c2.4,0,4.9,0,7.7,0c-0.3,0.6-0.5,1-0.8,1.3
		c-4.1,4.8-8.3,9.6-12.4,14.4c-0.6,0.8-1.3,1.5-2,2.4c5.7,7.9,11.7,15.5,17.2,23.5c-0.2,0.2-0.4,0.3-0.5,0.3c-2.6,0-5.1-0.1-7.9-0.1
		c-4.4-6-8.8-12-13.3-18.2c-0.5,0.3-0.9,0.5-1.2,0.9c-1.1,1.2-2.1,2.3-3.2,3.6c0,4.5,0.1,9.1,0,13.7c-2.4,0-4.5,0-6.8,0
		c0-1-0.1-1.9-0.1-2.7c0-10.1,0-20.1,0-30.2c0-2.6-0.1-5.2-0.2-7.7C756,211.5,756.1,211.2,756.1,210.7z"/>
	<path class="st2" d="M698.4,210.7c2.3-0.1,4.4-0.1,6.7,0c0.1,0.6,0.2,1.1,0.2,1.7c0,8.8,0,17.7,0,26.5c0,2.8-0.6,5.5-2.2,7.8
		c-1.6,2.6-4,4.3-6.8,5.2c-4.4,1.5-8.8,1.6-13.3,0.4c-6.2-1.7-9.6-6-10.2-12.7c-0.1-0.7-0.1-1.3-0.1-2c0-8.5,0-17,0-25.5
		c0-0.4,0-0.8,0.1-1.4c2.2-0.4,4.4-0.2,6.9-0.2c0,1.1,0.1,1.9,0.1,2.8c0,8.1,0,16.2,0,24.2c0,1.4,0.1,2.8,0.5,4.2
		c0.7,2.7,2.5,4.5,5.2,5.2s5.4,0.5,8.1-0.5c1.8-0.7,3.1-1.9,3.8-3.7c0.7-1.7,0.9-3.4,0.9-5.1c0-8.2,0-16.3,0-24.5
		C698.3,212.5,698.4,211.7,698.4,210.7z"/>
	<path class="st2" d="M316.2,210.7c2.4,0,4.6,0,6.9,0c0.1,0.5,0.2,1,0.2,1.5c0,8.8,0,17.7,0,26.5c0,2.2-0.4,4.3-1.3,6.3
		c-1.4,3-3.6,5.2-6.6,6.5c-5.3,2.2-10.7,2.3-16.1,0.3c-5.1-1.9-7.7-5.8-8.4-11.1c-0.1-0.7-0.1-1.5-0.1-2.2c0-8.7,0-17.5,0-26.2
		c0-0.4,0.1-0.8,0.1-1.3c1.1-0.6,2.3-0.2,3.4-0.3s2.1,0,3.4,0c0.1,1,0.1,1.8,0.1,2.6c0,8.2,0,16.3,0.1,24.5c0,1.2,0.1,2.5,0.4,3.7
		c0.8,3.6,2.8,5.4,6.5,6c2.2,0.3,4.3,0.2,6.4-0.5c2.4-0.7,4.1-2.3,4.6-4.8c0.3-1.5,0.6-3.1,0.6-4.7c0-8.2,0-16.5,0-24.7
		C316.2,212.1,316.2,211.5,316.2,210.7z"/>
	<path class="st2" d="M468.8,240.1c2.1,0,4.2,0,6.4,0c0.2,0.6,0.4,1.2,0.5,1.8c0.5,2.6,2.1,4.1,4.5,4.9c2.9,0.9,5.9,1,8.9,0.1
		c4.1-1.2,5.3-6.1,2.4-9.2c-1.1-1.1-2.4-1.8-3.8-2.3c-1.6-0.5-3.2-0.9-4.8-1.5c-2.1-0.8-4.2-1.6-6.3-2.5c-0.7-0.3-1.3-0.7-1.9-1.1
		c-7.6-5.4-5.6-14.7,1.2-18.2c3.5-1.8,7.2-2.4,11.1-1.9c2.9,0.4,5.7,1.2,8.1,3c2.2,1.7,3.7,3.8,4.4,6.5c0.2,0.9,0.3,1.8,0.5,2.8
		c-2.3,0.4-4.4,0.5-6.7,0.3c-0.2-0.5-0.3-1.1-0.5-1.6c-0.7-3-2.6-4.7-5.6-5.3c-2.4-0.5-4.6-0.3-6.9,0.6c-1.6,0.6-2.8,1.8-3.3,3.5
		c-0.6,1.8-0.2,3.5,1.1,4.8c1.3,1.3,2.8,2.1,4.5,2.6c2.1,0.7,4.3,1.3,6.4,2.1c2.5,0.9,4.9,2,7,3.7c4.2,3.5,4.8,9.4,2.6,13.4
		c-1.1,2-2.6,3.5-4.6,4.4c-6.9,3.1-13.8,2.9-20.3-1.2c-3.1-2-4.9-4.9-5.2-8.7C468.6,240.9,468.7,240.6,468.8,240.1z"/>
	<path class="st2" d="M198.6,222.8c-2.1,0.3-4.2-0.1-6.5,0c-0.3-0.9-0.5-1.7-0.7-2.5c-0.4-1.2-1-2.3-2.1-3c-3.5-2.1-7.2-2.3-11-0.6
		c-3.3,1.6-4,6.8-0.6,8.8c1.2,0.7,2.5,1.3,3.8,1.8c2,0.8,4.1,1.3,6.2,2c1.9,0.8,3.9,1.6,5.6,2.6c3.2,1.9,5.1,4.8,5.4,8.6
		c0.3,4-1.3,7.3-4.7,9.6c-2.9,1.9-6.1,2.6-9.5,2.7c-4.5,0.1-8.8-0.7-12.5-3.5c-2.5-1.9-4-4.4-4.6-7.5c-0.1-0.5,0-1.1,0-1.8
		c2.2-0.4,4.3-0.2,6.6-0.2c0.1,0.5,0.3,1,0.3,1.4c0.4,2.9,2.2,4.7,4.9,5.4c2.8,0.8,5.6,0.8,8.4,0.1c4.3-1,5.4-6.1,2.7-9.1
		c-1.1-1.2-2.4-2-4-2.5s-3.2-1-4.8-1.5c-2.6-0.8-5.1-1.7-7.3-3.1c-1-0.6-1.9-1.4-2.7-2.2c-3.8-3.6-3.5-10.3-0.5-13.7
		c1.7-1.8,3.7-3.2,6-3.9c4.3-1.4,8.7-1.4,13,0.1C194.8,212.9,198.5,217.1,198.6,222.8z"/>
	<path class="st2" d="M397.5,247c0,2,0,3.6,0,5.4c-3,0.4-6.1,0.1-9.1,0.2c-3.2,0-6.3,0-9.5,0c-3.1,0-6.1,0-9.1,0
		c-0.7-1-0.4-1.9-0.4-2.8c0-9.5,0-19,0-28.5c0-2.8,0-5.7,0-8.5c0-0.6,0-1.3,0-1.8c0.3-0.2,0.3-0.3,0.4-0.3s0.1-0.1,0.2-0.1
		c8.8,0,17.6,0,26.5,0c0.2,0,0.5,0.1,0.8,0.2c0.3,1.8,0.3,3.6,0,5.4c-1.8,0.4-3.6,0.2-5.3,0.2c-1.7,0-3.5,0-5.2,0s-3.3,0-5,0
		s-3.5-0.1-5.3,0.1c-0.1,3.8,0,7.4,0,11c0.6,0.7,1.3,0.6,1.9,0.6c4.6,0,9.2,0,13.7,0c0.8,0,1.6,0.1,2.6,0.1c0.1,1,0.1,1.8,0.1,2.6
		s0,1.6,0,2.3c-0.8,0.8-1.5,0.5-2.3,0.5c-4.7,0-9.3,0-14,0c-0.6,0-1.3,0.1-1.9,0.1c-0.4,2.2-0.4,11,0,13.2
		C383.5,247.1,390.3,246.9,397.5,247z"/>
	<path class="st2" d="M564.5,210.7c2.1,0,4.2,0,6.2,0c1.1,1.8,14.8,39.9,15.1,41.8c-0.5,0.1-1,0.2-1.5,0.2c-1.7,0-3.3,0-5.1,0
		c-1.5-3.3-2.1-6.8-3.6-9.9c-5.4,0-10.7,0-16.2,0c-1.1,3.2-2.3,6.4-3.4,9.8c-2.2,0.2-4.4,0.2-6.9,0
		C554.3,238.5,559.4,224.7,564.5,210.7z M567.6,219.6c-2.2,5.7-3.8,11.4-5.9,17.1c2.3,0.4,10.3,0.4,11.9,0
		C572.9,233.5,568.6,221.1,567.6,219.6z"/>
	<path class="st2" d="M109.2,239.1c2.2,0,4.4,0,6.5,0c0.2,4-2,8.5-5.4,11c-5.2,3.8-13.5,4.1-18.9,0.7c-2.9-1.8-4.8-4.3-6-7.4
		c-0.9-2.2-1.4-4.5-1.5-6.8c-0.1-3.3-0.1-6.7,0-10c0.1-2.9,0.8-5.6,2.1-8.1c3.2-6.3,9.5-8.9,16.1-8.2c1.4,0.1,2.8,0.4,4.1,0.8
		c3.8,1.1,6.5,3.5,8.2,7.2c0.5,1.1,0.8,2.2,1.1,3.3c0.2,0.9,0.3,1.8,0.5,2.8c-2.4,0.3-4.6,0.2-6.9,0c-0.2-0.9-0.5-1.7-0.7-2.4
		c-1.2-4.8-4.3-6.6-9.6-6.2c-2.7,0.2-4.8,1.7-6.1,4.2c-1.1,2.1-1.9,4.3-1.9,6.7c-0.1,3.4-0.1,6.8,0,10.2c0,2.2,0.6,4.3,1.7,6.2
		c1.6,2.9,4,4.6,7.5,4.5c0.7,0,1.5,0,2.2-0.1c3-0.4,5.1-1.9,6-4.9C108.6,241.4,108.9,240.3,109.2,239.1z"/>
	<path class="st2" d="M231.4,239.1c2.2-0.2,4.4-0.1,6.5,0c0.2,5.5-3.6,10.8-8.1,12.6c-4.2,1.7-8.6,2-12.9,0.6
		c-3.8-1.2-6.6-3.6-8.4-7c-1.3-2.4-2-5.1-2.2-7.9c-0.3-3.9-0.2-7.8,0.1-11.7c0.1-1.5,0.4-3,0.8-4.4c2.4-8,9.3-11.9,17.1-11.1
		c1.4,0.1,2.8,0.5,4.2,0.8c3.9,1,6.6,3.5,8.2,7.1c0.9,1.9,1.6,4,1.6,6.3c-2.3,0-4.4,0-6.6,0c-0.2-0.8-0.4-1.6-0.7-2.4
		c-0.6-2-1.6-3.9-3.4-5.1c-4.6-2.9-10.9-1-13.1,4c-0.9,1.9-1.2,4-1.2,6.1c0,3.7,0,7.5,0.2,11.2c0.1,1.5,0.6,2.9,1.2,4.3
		c1.8,3.9,5.2,5.5,9.7,4.9c3.1-0.4,5.3-1.9,6.2-5C230.7,241.4,231.1,240.3,231.4,239.1z"/>
	<path class="st2" d="M740.2,239.1c2.2-0.2,4.3-0.1,6.6-0.1c0,0.7,0.1,1.3,0,1.8c-0.9,4.3-2.9,8.1-7,10.1c-5.3,2.7-10.9,3-16.3,0.3
		c-3.4-1.6-5.6-4.4-7-7.8c-0.9-2.3-1.5-4.6-1.6-7c0-3.4-0.1-6.8,0.1-10.2c0.1-1.8,0.4-3.7,1-5.4c2.9-8.4,10-11.4,17.1-10.7
		c1.3,0.1,2.6,0.4,3.9,0.8c4,1.1,6.7,3.5,8.4,7.3c0.8,1.9,1.6,3.8,1.4,6.1c-2.2,0-4.3,0-6.6,0c-0.3-1.1-0.6-2.1-0.8-3.1
		c-0.9-3.1-2.9-4.9-6.2-5.4c-1.5-0.2-3-0.3-4.5,0.1c-1.7,0.4-3,1.3-4.1,2.7c-1.7,2.2-2.7,4.6-2.7,7.4c-0.1,3.8-0.1,7.7,0,11.5
		c0.1,2.2,0.8,4.3,2,6.1c1.6,2.6,3.9,4,7.1,3.9c0.7,0,1.3,0,2-0.1c3.1-0.3,5.3-1.9,6.3-4.9C739.5,241.4,739.8,240.3,740.2,239.1z"/>
	<path class="st2" d="M340.8,210.6c0.1,3.2,0,6.2,0,9.2s0,6,0,9s0,6,0,9s0,6,0,9.1c3.4,0.2,6.7,0.1,9.9,0.1c3.2,0,6.5,0,9.9,0
		c0.4,1.8,0.3,3.5,0.2,5.1c-0.1,0.2-0.2,0.3-0.2,0.3c-0.1,0-0.1,0.1-0.2,0.1c-8.1,0-16.1,0.1-24.2,0.1c-0.7,0-1.3,0-1.8,0
		c-0.2-0.2-0.2-0.3-0.3-0.3c0-0.1-0.1-0.1-0.1-0.2c0-13.5,0-27-0.1-40.5c0-0.2,0.1-0.5,0.2-0.9C336.2,210.5,338.3,210.6,340.8,210.6
		z"/>
	<path class="st2" d="M128.2,305.1c0-6.5,0-12.9,0-19.5c0.6-0.1,1.1-0.1,1.5-0.1c0.7,0.8,0.5,1.7,0.5,2.5c0.3,12.6,0.2,20-0.3,21.9
		c-0.8,0.4-1.4,0.1-2-0.5c-0.4-0.5-0.8-1.1-1.1-1.6c-4-6-8-12.1-11.9-18.1c-0.1-0.4-0.3-0.6-0.6-0.2c0,4.8,0,9.7-0.1,14.5
		c0,1.9-0.1,3.8-0.2,5.9c-0.6,0-1,0.1-1.4,0.1c-0.4-2.1-0.4-22.5-0.1-24.3c0.9-0.4,1.6-0.1,2.2,0.7c0.4,0.6,0.8,1.3,1.2,1.9
		c3.8,5.7,7.5,11.4,11.3,17.1c0.1,0.5,0.2,1,1,0.8C128.2,305.7,128.2,305.4,128.2,305.1z"/>
	<path class="st2" d="M631.7,305.8c0-6.7,0-13.4,0-20.3c0.6-0.1,1-0.1,1.4-0.1c0.4,2.7,0.4,22.2,0,24.3c-0.8,0.5-1.4,0.3-1.9-0.4
		c-0.4-0.5-0.8-1.1-1.1-1.6c-3.5-5.4-7-10.7-10.6-16.1c-0.3-0.5-0.7-0.9-1.2-1.6c-0.3,0.5-0.8,0.8-0.8,1.1c-0.1,1.5-0.1,3-0.1,4.5
		c0,4,0,8-0.1,12c0,0.7-0.1,1.3-0.1,2.1c-0.6,0-1,0-1.7,0c-0.3-7.3-0.1-14.5-0.2-21.7c0-0.8-0.2-1.7,0.3-2.4
		c0.9-0.5,1.6-0.1,2.1,0.6c0.6,0.7,1,1.5,1.6,2.3c3.3,4.9,6.5,9.9,9.8,14.8c0.6,0.9,1.3,1.9,2,2.8
		C631.3,305.9,631.5,305.9,631.7,305.8z M617.7,289.2c0,0-0.1-0.1-0.2-0.1c-0.1,0-0.1,0.1-0.2,0.2c0.1,0,0.2,0.1,0.3,0.1
		C617.7,289.3,617.7,289.3,617.7,289.2z"/>
	<path class="st2" d="M332,297.5c-0.1,1.4,0,2.8-0.2,4.2c-0.7,3.7-2.4,6.8-6.3,8c-5.9,1.8-11-1.4-12.1-7c-0.6-3.3-0.7-6.6-0.1-9.9
		c0.8-4.2,4-7.3,8-7.7c4.7-0.4,8.4,1.9,9.9,6.3C331.9,293.3,331.9,295.4,332,297.5z M330.2,298.2c-0.1-1.6-0.2-3-0.4-4.4
		c-0.1-0.7-0.3-1.3-0.5-1.9c-1.1-3.5-3.7-5.1-6.9-5.1c-3,0-5.4,0.9-6.9,4.8c-1.1,2.8-1,9.5,0,12.3c0.1,0.4,0.3,0.8,0.5,1.1
		c1,1.8,2.4,2.9,4.4,3.4c4.3,1,8.1-1.2,9.1-5.6C329.9,301.2,330,299.6,330.2,298.2z"/>
	<path class="st2" d="M531.6,303.1c0.5-0.1,0.9-0.2,1.2-0.2c0.2,0.2,0.4,0.3,0.4,0.4c1.4,4,3.2,5.3,7.4,5.3c1.2,0,2.3-0.2,3.4-0.5
		c1.9-0.5,2.9-1.9,3.1-3.8c0.2-1.7-0.5-3.1-2-4c-0.8-0.5-1.6-0.8-2.5-1.2c-1.5-0.5-3-0.9-4.5-1.5c-1.2-0.5-2.5-1-3.6-1.8
		c-3.2-2.3-3-6.9,0.1-9.2c2.9-2.1,8-2.2,10.9-0.2c1.9,1.3,3.2,3.1,3.1,5.6c-0.8,0.5-1.3,0.4-1.7-0.3c-0.1-0.2-0.2-0.5-0.2-0.7
		c-0.7-3-3-4.1-5.7-4.3c-1.3-0.1-2.7,0.2-3.9,0.6c-1.7,0.6-2.8,1.7-3,3.6c-0.1,2,0.8,3.4,2.6,4.2c1.2,0.6,2.5,0.9,3.7,1.4
		c1.8,0.7,3.6,1.3,5.3,2.1c1.9,0.9,3,2.6,3.2,4.8c0.2,2.4-0.7,4.3-2.8,5.5c-3.9,2.1-7.8,2.1-11.7-0.2
		C532.6,307.5,531.9,306,531.6,303.1z"/>
	<path class="st2" d="M237.9,292.4c-1-0.2-1.4-0.4-1.6-1.1c-0.4-2.2-1.7-3.6-3.8-4.2c-2.4-0.8-4.8-0.6-7,0.7
		c-2.4,1.4-2.6,5.4-0.3,6.8c1.1,0.7,2.4,1.1,3.6,1.6c1.3,0.5,2.7,0.8,4,1.3c1.1,0.5,2.3,1,3.3,1.8c3.3,2.6,3,7.7-0.7,9.7
		s-7.6,1.9-11.3-0.1c-1.8-1-2.9-2.5-3.2-4.6c0-0.2,0-0.5,0-0.7c0-0.1,0.2-0.3,0.3-0.6c0.3,0.1,0.7,0.1,1.1,0.2
		c0.1,0.4,0.3,0.7,0.4,1c0.6,2.5,2.3,3.8,4.7,4.2c2.1,0.4,4.1,0.4,6.1-0.4c1.7-0.7,2.7-2,2.8-3.8c0.2-1.7-0.6-3.1-2.1-4
		c-0.8-0.5-1.6-0.8-2.5-1.1c-1.6-0.6-3.4-1-5-1.6c-1.1-0.4-2.2-0.9-3.1-1.6c-3-2.3-2.9-6.5,0-8.9c2.7-2.3,8.7-2.7,11.9,0.1
		c1.3,1.2,2.1,2.6,2.4,4.3C238.3,291.6,238,292,237.9,292.4z"/>
	<path class="st2" d="M702.9,292.1c-0.6,0-1,0-1.4,0c-0.2-0.3-0.4-0.5-0.4-0.7c-0.4-2.8-2.6-4.5-6.1-4.8c-1.4-0.1-2.8,0.2-4.1,0.8
		c-3.2,1.5-3.5,5.3-0.6,7.2c1,0.6,2.1,1,3.2,1.4c1.5,0.5,3,0.9,4.5,1.5c1.4,0.5,2.6,1.2,3.6,2.2c2.6,2.7,2.1,7-1.1,9.1
		c-3.3,2.1-9,1.9-12.1-0.4c-1.3-0.9-2-2.2-2.5-3.7c-0.2-0.8-0.2-1.5,0.8-2c0.3,0.4,0.7,0.8,0.9,1.3c0.9,3.3,3.3,4.4,6.4,4.5
		c1.4,0,2.8-0.2,4.2-0.5c1.8-0.5,2.9-1.9,3.1-3.8c0.2-1.8-0.6-3.2-2.2-4.1c-0.7-0.4-1.5-0.7-2.3-1c-1.6-0.5-3.2-1-4.7-1.6
		c-1.2-0.4-2.4-0.9-3.3-1.7c-3-2.2-2.9-6.8,0.1-9c3-2.3,8.3-2.4,11.3-0.2C701.8,287.9,703,289.6,702.9,292.1z"/>
	<path class="st2" d="M207.7,299c-2.7,0-5.1,0-7.7,0c-0.2,3.6,0,7-0.2,10.6c-0.5,0.1-0.9,0.1-1.3,0.2c-0.5-2.1-0.7-16.7-0.3-24.1
		c0.4-0.1,0.9-0.2,1.4-0.2c2.4,0,4.8,0,7.2,0c0.6,0,1.2,0,1.7,0.1c2.7,0.5,4.8,1.9,5.5,4.8s-0.2,5.4-2.7,7.2
		c-0.5,0.4-1.1,0.7-1.7,1.2c1.9,3.7,4,7.1,5.8,10.8c-0.9,0.8-1.6,0.5-2.1-0.1c-0.4-0.5-0.7-1.1-1-1.7
		C210.8,304.8,209.3,301.9,207.7,299z M200.1,297.3c3.1,0.2,6.1,0.3,9-0.3c0.5-0.1,1.1-0.4,1.5-0.8c2.4-1.7,2.8-7.3-1.5-8.8
		c-0.8-0.3-1.6-0.4-2.4-0.4c-1.7-0.1-3.5,0-5.2,0c-0.5,0-0.9,0.1-1.5,0.2C199.9,290.6,199.8,293.9,200.1,297.3z"/>
	<path class="st2" d="M384.2,303c-3.9,0-7.5,0-11.3,0c-0.5,1.4-1.1,2.8-1.6,4.2c-0.3,0.7-0.5,1.4-0.9,2.1c-0.3,0.6-0.8,0.9-1.5,0.4
		c-0.3-0.9,0.2-1.7,0.6-2.5c2.3-6.2,4.7-12.5,7.1-18.7c0.3-0.7,0.5-1.4,0.8-2.1c0.3-0.5,0.7-0.8,1-1.1c1.3,0.2,1.5,1.2,1.9,2
		c0.8,2.1,1.6,4.2,2.4,6.3c1.7,4.6,3.5,9.2,5.2,13.8c0.3,0.8,0.8,1.5,0.4,2.6c-0.4-0.1-1-0.1-1.2-0.3c-0.5-0.6-0.8-1.3-1.1-1.9
		C385.3,306.2,384.8,304.7,384.2,303z M378.6,288c-1.7,3.6-4.6,11.5-4.7,13.2c2.5,0.4,7.2,0.3,9.3-0.2
		C382.9,299.1,379.6,289.8,378.6,288z"/>
	<path class="st2" d="M496.7,285.4c3.2-0.1,6.3-0.3,9.3,0.2c4,0.6,7.4,4.3,7.7,8.4c0.2,2.3,0.2,4.7,0,7c-0.3,4.5-3.9,8.1-8.4,8.5
		c-2.2,0.2-4.5,0.3-6.7,0.4c-0.6,0-1.1-0.1-1.9-0.1c-0.2-4.2,0-8.2,0-12.3C496.8,293.6,496.5,289.6,496.7,285.4z M498.6,287
		c-0.4,2.8-0.3,19,0,21c1.8,0.3,3.6,0.1,5.4,0.1c4.4,0.1,7.2-3.4,7.8-7c0.4-2.6,0.3-5.2-0.2-7.7c-0.6-3.7-3.5-6.2-7.2-6.4
		C502.6,286.9,500.7,287,498.6,287z"/>
	<path class="st2" d="M658,301.7c0.2,0.9,0.5,1.3,0.4,1.7c-0.4,2.2-1.5,4.1-3.4,5.3c-2.7,1.7-5.7,1.9-8.6,0.7c-2.7-1-4.3-3.1-5-5.9
		c-0.9-3.9-1-7.8-0.1-11.7c1.5-6.8,7.9-8,12.5-6.3c2.6,1,4.1,3.1,4.6,5.8c0.1,0.4-0.1,0.9-0.2,1.7c-0.6-0.3-1.1-0.5-1.3-0.8
		c-0.3-0.4-0.4-0.9-0.5-1.4c-0.9-3.5-4.3-4.7-7.2-4.4c-2.3,0.2-4,1.5-5.2,3.5c-0.8,1.4-1.3,2.9-1.2,4.5c0,2.1,0,4.2,0.1,6.2
		c0,0.8,0.2,1.7,0.5,2.4c1.4,4.6,6.1,6.6,10.4,4.5c1.3-0.6,2-1.7,2.5-3c0.3-0.7,0.5-1.4,0.8-2.1C657.1,302.5,657.4,302.3,658,301.7z
		"/>
	<path class="st2" d="M571.9,301.7c0.3,0.9,0.5,1.4,0.5,1.8c-0.3,1.9-1.1,3.5-2.6,4.7c-3.4,3-11.4,3.3-14.1-3.3
		c-1.3-3.3-1.3-11.2,0-14.5c2.1-5.1,8.7-7.1,13.2-4c2.3,1.5,3.5,3.9,3.2,6.8c-0.4-0.2-1-0.2-1.2-0.5c-0.3-0.3-0.5-0.9-0.6-1.3
		c-0.8-3.5-3.7-4.5-6.3-4.7c-2.9-0.1-5.5,1.6-6.6,4.4c-0.5,1.5-0.9,3.1-1,4.6c-0.1,2,0.1,4,0.3,6c0,0.6,0.2,1.1,0.4,1.7
		c1.7,5.6,6.7,6,10.4,4.5c1.3-0.5,2-1.7,2.5-3c0.2-0.6,0.4-1.3,0.6-1.9C570.9,302.6,571.3,302.4,571.9,301.7z"/>
	<path class="st2" d="M102.4,285.4c0.7,0,1.1-0.1,1.5-0.1c0.2,0.3,0.3,0.4,0.3,0.5c0,5.6,0.1,11.2,0,16.7c-0.1,4.2-2.8,7-7,7.4
		c-1.6,0.1-3.2,0.1-4.7-0.3c-2.9-0.7-4.8-2.6-5.3-5.6c-0.2-0.8-0.3-1.6-0.3-2.5c0-5,0-10,0-15c0-0.3,0.1-0.6,0.1-1.1
		c0.6,0,1.1,0,1.7,0c0,1.2,0.1,2.2,0,3.1c-0.5,4.6,0,9.2,0.1,13.7c0.1,3.9,2.5,6.1,6.5,6.1c0.8,0,1.7-0.1,2.5-0.3
		c2.7-0.7,4.3-2.5,4.6-5.3c0.1-1.4,0.1-2.8,0.1-4.2C102.4,294.4,102.4,290.1,102.4,285.4z"/>
	<path class="st2" d="M396.3,299.7c0,1.8,0,3.4,0,5s0,3.2,0,4.9c-0.6,0.1-1.1,0.1-1.8,0.2c-0.3-8.2,0-16.1-0.2-24.2
		c0.5-0.1,0.9-0.3,1.3-0.3c2.6,0,5.2,0,7.7,0.1c0.5,0,1,0,1.5,0.1c3.7,0.5,6.1,3.3,6,7.1c-0.1,3.7-2.3,6.4-6,6.8
		c-2.1,0.2-4.3,0.2-6.5,0.2C397.8,299.6,397.3,299.7,396.3,299.7z M396.3,287c0,2.1,0,3.9,0,5.6s-0.1,3.5,0.1,5.4c2.1,0,4.1,0,6.1,0
		c0.7,0,1.3,0,2-0.1c1.8-0.4,3.3-1.3,4-3c1.4-3.5-0.6-7.2-4.3-7.7C401.7,286.7,399.1,287,396.3,287z"/>
	<path class="st2" d="M418.8,299.7c-0.1,3.4-0.1,6.6-0.2,10c-0.5,0.1-1,0.1-1.4,0.1c-0.5-2.2-0.6-19.1-0.2-24.2
		c0.4-0.1,0.9-0.2,1.3-0.2c2.7,0,5.3,0,8,0.1c6.3,0.3,7.8,5.8,6.5,9.7c-0.7,1.9-2,3.3-4,3.8c-1.3,0.3-2.6,0.4-3.9,0.5
		C422.9,299.6,420.9,299.7,418.8,299.7z M418.8,287c0,3.9-0.3,7.4,0.1,10.9c2.6,0,5,0.1,7.4,0c1.7-0.1,3.2-0.8,4.2-2.3
		c2.3-3.5,0.3-8-3.8-8.5C424.2,286.8,421.6,287,418.8,287z"/>
	<path class="st2" d="M158.4,309.9c-0.3-0.4-0.7-1-0.9-1.5c-2.7-7.2-5.4-14.5-8.1-21.7c-0.1-0.3-0.1-0.6-0.2-1.1c0.6,0,1.1,0,1.8,0
		c0.9,2.5,1.8,4.9,2.7,7.3c1.4,3.9,2.8,7.8,4.2,11.7c0.3,0.7,0.4,1.6,1.3,2.3c2.6-7.1,5.1-14.1,7.7-21.2c0.6,0,1.1-0.1,1.8-0.1
		c-0.1,0.5-0.1,0.8-0.2,1.1c-2.6,7.2-5.3,14.4-7.9,21.5C160.3,309,160,310,158.4,309.9z"/>
	<path class="st2" d="M488.8,309.4c-0.4,0.2-0.7,0.4-1,0.3c-4.7-0.2-9.4,0.5-14.1,0.1c-0.5-2-0.6-18.1-0.2-24.2
		c1.6-0.6,3.2-0.2,4.8-0.3c1.7-0.1,3.5,0,5.2,0c1.6,0,3.3-0.1,5.2,0.2c-0.3,0.6-0.4,1.1-0.6,1.2c-0.5,0.2-1.1,0.2-1.7,0.2
		c-3.2,0-6.3,0-9.5,0.1c-0.6,0-1.1,0.1-1.6,0.2c0,3.1,0,6.1,0,9.2c2.1,0,4,0,5.9,0.1c1.9,0,3.8,0,5.8,0.1c-0.1,0.6-0.2,0.9-0.3,1.3
		c-3.8,0.1-7.5,0.1-11.2,0.2c-0.4,2.1-0.4,7.8,0,10.1c0.4,0,0.9,0.1,1.4,0.1c3.4,0,6.8,0.1,10.2,0.1
		C487.7,308.3,488.4,308.2,488.8,309.4z"/>
	<path class="st2" d="M176.8,308.1c0.9,0,1.8,0.1,2.6,0.1c3.2,0.1,6.3,0.1,9.5,0.2c0.6,0,1.2,0,1.3,0.9c-0.2,0.1-0.3,0.3-0.5,0.4
		c-4,0.4-13,0.3-14.7-0.1c0-7.9,0-15.9,0-23.8c2.8-0.5,13.8-0.4,14.9,0.1c0.1,0,0.1,0.3,0.2,0.6c-1.3,0.8-2.9,0.3-4.3,0.5
		c-1.4,0.2-2.8,0.1-4.2,0.1c-1.5,0-3,0-4.4,0c-0.7,2.1-0.8,6.4-0.2,9.4c3.7,0,7.5,0.1,11.4,0.1c0.1,0.5,0.2,0.8,0.2,1
		c-0.2,0.1-0.2,0.2-0.3,0.2c-3.8,0.1-7.6,0.3-11.6,0.4C176.2,301.4,176.5,304.7,176.8,308.1z"/>
	<path class="st2" d="M608.2,309.3c-0.1,0.1-0.2,0.3-0.4,0.3c-4.6,0.1-9.1,0.2-13.7,0.3c-0.4,0-0.8-0.2-1.2-0.3c0-8,0-15.9,0-23.9
		c0.3-0.1,0.6-0.2,0.9-0.2c4.3,0,8.7,0,13,0c0.6,0,1.2,0,1.2,1c-1.4,0.6-2.9,0.3-4.3,0.4c-1.4,0.1-2.8,0.1-4.2,0.1c-1.5,0-3,0-4.6,0
		c-0.5,3.2-0.1,6.1-0.3,9.3c4,0.4,7.9,0,11.9,0.3c0,0.4,0.1,0.7,0.2,1.3c-4,0-7.8,0-11.5,0c-0.6,1.9-0.7,7.2-0.1,10.2
		c0.5,0.1,1.1,0.2,1.6,0.2c3.4,0.1,6.8,0.1,10.2,0.2C607.3,308.4,608,308.3,608.2,309.3z"/>
	<path class="st2" d="M667.7,296.4c1.9,0,3.9,0,5.9,0c1.9,0.1,3.8-0.2,5.6,0.3c0,0.3,0,0.6,0,0.9c-2,0.5-4,0.2-5.9,0.3
		c-1.9,0.1-3.8,0.1-5.8,0.1c-0.3,3.4,0,6.6-0.1,9.9c2.4,0.4,4.6,0.1,6.8,0.2c2.1,0.1,4.3,0.2,6.5,0.2c0.1,0.4,0.2,0.7,0.2,0.9
		c-2.1,0.5-12.9,0.7-14.9,0.3c-0.1-0.1-0.1-0.1-0.2-0.2c0-0.1-0.1-0.2-0.1-0.2c0-7.7,0-15.5,0-23.2c0-0.1,0.1-0.3,0.2-0.4
		c3-0.4,12.8-0.3,14.9,0.2c0,0.3-0.1,0.6-0.2,1.1c-4.4,0.1-8.7,0.1-12.9,0.2C667.3,288.9,667.3,293.9,667.7,296.4z"/>
	<path class="st2" d="M295.9,285.4c0.7,0,1.2,0,1.7,0c0,0.3,0.1,0.5,0,0.6c-2.5,4.5-5.1,9-7.7,13.4c-0.6,1-0.8,2-0.8,3.1
		c0,2.3,0,4.6,0,7.1c-0.7,0-1.2,0-1.9,0c0-1.7,0-3.3,0-4.9c-0.1-4.9,0.4-3.2-2.1-7.7c-1.9-3.4-3.9-6.8-5.8-10.2
		c-0.2-0.4-0.4-0.9-0.6-1.4c1.5-0.4,2.1,0.2,2.7,1.3c1.8,3.3,3.6,6.6,5.4,9.8c0.4,0.6,0.7,1.3,1.2,2.1c0.4-0.5,0.8-0.8,1-1.2
		c1.8-3.3,3.6-6.5,5.5-9.8C295.1,287,295.5,286.2,295.9,285.4z"/>
	<path class="st2" d="M339.3,285.4c5.3,0,10.2,0,15.3,0c0,0.5,0.1,0.8,0.1,1.2c-1.5,0.6-3,0.2-4.5,0.3c-1.5,0.1-3,0-4.5,0
		s-3,0-4.6,0c0.1,3.3,0.1,6.4,0.2,9.5c4,0.8,8-0.3,11.8,0.7c0.1,0,0.1,0.3,0.2,0.6c-1.9,0.8-3.9,0.3-5.8,0.4c-2,0.1-4,0.1-6.1,0.2
		c-0.2,2,0,3.9-0.1,5.8c-0.1,1.8,0.2,3.6-0.2,5.5c-0.5,0-1,0-1.6,0C339.2,301.6,339.2,293.7,339.3,285.4z"/>
	<path class="st2" d="M440.1,285.5c0.5,0,1,0,1.6,0c0.2,2.5,0.1,5,0.1,7.5s0,5,0,7.5s0,5,0,7.5c1.5,0.3,2.8,0.1,4.1,0.2
		c1.2,0.1,2.5,0.1,3.7,0.1c1.3,0,2.6,0.1,4.1,0.1c0,0.4,0,0.7,0.1,1c-2.8,0.5-11.6,0.6-13.6,0.2c-0.1-0.3-0.3-0.7-0.3-1.1
		c0-7.4,0-14.8,0-22.2C439.9,286.1,440,286,440.1,285.5z"/>
	<path class="st2" d="M266.4,309.8c-0.6,0.1-1,0.1-1.4,0.1c-0.1-0.4-0.3-0.8-0.3-1.2c0-4.1-0.1-8.2-0.1-12.2c0-3.1,0-6.1,0-9.4
		c-1.5,0-2.8-0.1-4.1-0.1c-1.2,0-2.3,0-3.5-0.1c-0.3,0-0.6-0.6-1-1.1c0.7-0.2,1.1-0.3,1.5-0.4c3.9-0.3,15.4-0.1,17.3,0.3
		c0,0.3,0,0.6-0.1,1c-2.7,0.4-5.3,0-8.1,0.4c-0.4,2.5-0.1,5-0.2,7.5c0,2.5,0,5,0,7.5C266.4,304.6,266.4,307.1,266.4,309.8z"/>
	<path class="st2" d="M249.2,309.7c-0.5,0.1-0.8,0.2-1,0.2s-0.4-0.2-0.6-0.2c-0.4-2-0.5-19.3-0.2-24.1c0.5,0,1-0.1,1.8-0.1
		C249.3,293.6,249.2,301.5,249.2,309.7z"/>
	<path class="st2" d="M140.1,285.4c0.5,0,1,0,1.5,0c0.3,2.1,0.3,22.4-0.1,24.4c-0.4,0-0.8,0-1.3,0
		C139.8,307.7,139.7,288.7,140.1,285.4z"/>
	<path class="st2" d="M692.2,200.6c2.1-0.5,4.2-0.1,6.4-0.2c0.5,2,0.2,3.9,0.2,5.7c-1.6,0.5-4.1,0.5-6.6,0.2
		C691.9,204.5,691.8,202.7,692.2,200.6z"/>
	<path class="st2" d="M679.4,206.4c0-2,0-3.8,0-5.7c1.1-0.7,2.3-0.3,3.4-0.4c1.1-0.1,2.1,0,3.3,0c0.4,2,0.3,3.9,0.1,5.9
		C683.9,206.7,681.8,206.5,679.4,206.4z"/>
	<path class="st2" d="M463,309.9c-0.4,0-0.7-0.1-1-0.1c-0.5-2.1-0.6-20-0.2-24.3c0.4,0,0.8-0.1,1.5-0.1c0.1,8,0.1,15.8,0,23.6
		C463.4,309.2,463.2,309.5,463,309.9z"/>
	<path class="st2" d="M581.3,285.5c0.5,0,0.9,0,1.3,0c0.1,0.2,0.3,0.4,0.3,0.6c0,2.6,0.1,5.1,0.1,7.7c0,4.6,0,9.3,0,13.9
		c0,0.6-0.1,1.1-0.1,1.8c-0.4,0.1-0.8,0.2-1.1,0.3c-0.2-0.2-0.4-0.3-0.4-0.4c-0.1-0.6-0.2-1.1-0.2-1.7c0-7.1,0-14.3,0-21.4
		C581.1,286.1,581.2,286,581.3,285.5z"/>
	<path class="st0" d="M617.3,231c-0.5,0-1.1,0.1-1.3-0.8c0.3-0.1,0.5-0.2,0.8-0.3C617,230.3,617.1,230.7,617.3,231z"/>
	<path class="st0" d="M535.2,240c0,0.3,0,0.6,0,0.9c-0.8,0.2-0.9-0.3-1-0.8C534.5,240,534.9,240,535.2,240z"/>
	<path class="st0" d="M128.2,305.1c0,0.3,0,0.6,0,0.9c-0.8,0.1-0.9-0.3-1-0.8C127.5,305.1,127.9,305.1,128.2,305.1z"/>
	<path class="st0" d="M516.3,223c0-0.3,0-0.6,0-1.3c0.5,0.7,0.7,1,0.9,1.3C517,223,516.7,223,516.3,223z"/>
	<path class="st0" d="M114.2,289.4c0.3-0.5,0.5-0.3,0.6,0.2C114.6,289.5,114.4,289.4,114.2,289.4z"/>
	<path class="st0" d="M617.7,289.2c0,0.1,0,0.1,0,0.2c-0.1,0-0.2-0.1-0.3-0.1c0.1-0.1,0.1-0.1,0.2-0.2
		C617.6,289.1,617.6,289.2,617.7,289.2z"/>
</g>
</svg>
