<?xml version="1.0" encoding="utf-8"?>
<!-- Generator: Adobe Illustrator 27.4.0, SVG Export Plug-In . SVG Version: 6.00 Build 0)  -->
<svg version="1.1" id="Ebene_1" xmlns="http://www.w3.org/2000/svg" xmlns:xlink="http://www.w3.org/1999/xlink" x="0px" y="0px"
	 viewBox="0 0 239 52.4" style="enable-background:new 0 0 239 52.4;" xml:space="preserve">
<style type="text/css">
	.st0{fill:#0C8A2D;}
	.st1{fill:#999FA2;}
</style>
<g>
	<path class="st0" d="M232.4,10.6c0.2,0,0.2-0.2,0.4-0.2c2,0,3.8,0,5.8,0c0,0,0.2,0,0.4,0c0,10.4,0,21,0,31.4c-3,0-5.8,0-8.8,0
		c-0.2-0.4-0.2-0.8-0.4-1c-1-2.4-1.8-4.6-2.8-7c-0.6-1.4-1-2.8-1.6-4.2c-0.6-1.4-1.2-3-1.8-4.4c-0.4-1.2-1-2.4-1.4-3.6
		c-0.4-0.8-0.6-1.6-1-2.4l0,0l0,0c0,0.2,0,0.2,0,0.4v0.2c0,0.2,0,0.2,0,0.4c0,0.2,0,0.4,0,0.6s0,0.4,0,0.4c0,0.2,0,0.4,0,0.8l0,0
		l0,0c0,5,0,10,0,14.8c0,1.4,0,2.6,0,4l0,0l0,0c0,0.2,0,0.4,0,0.6c0,0,0,0-0.2,0c-2.2,0-4.2,0-6.4,0c0-10.6,0-21,0-31.4
		c0.2,0,0.4,0,0.4,0c2.6,0,5,0,7.6,0c0.4,0,0.8,0.2,1,0.6c0.4,1.2,0.8,2.4,1.4,3.4c0.6,1.2,1.2,2.6,1.6,3.8c0.8,1.6,1.4,3.2,2,4.8
		c1.2,2.8,2.4,5.6,3.6,8.4c0,0.2,0.2,0.4,0.4,0.6c0-0.6,0-1,0-1.6v-0.2c0-0.2,0-0.2,0-0.4c0,0,0,0,0-0.2s0-0.2,0-0.4c0,0,0,0,0-0.2
		s0-0.2,0-0.4c0,0,0,0,0-0.2s0-0.2,0-0.4c0,0,0,0,0-0.2s0-0.2,0-0.4c0,0,0,0,0-0.2v-0.2v-0.2c0-0.4,0-0.8,0-1.2c0,0,0,0,0-0.2
		c0-5,0-10,0-15C232.2,11,232.4,10.8,232.4,10.6z"/>
	<path class="st0" d="M122,24.8c0-0.2,0-0.2,0-0.4c0,0,0,0,0-0.2s0-0.2,0-0.4c0,0,0,0,0-0.2s0-0.2,0-0.4c0,0,0,0,0-0.2s0-0.2,0-0.4
		c0,0,0,0,0-0.2s0-0.2,0-0.4c0,0,0,0,0-0.2s0-0.2,0-0.4c0,0,0,0,0-0.2s0-0.2,0-0.4c0,0,0,0,0-0.2s0-0.2,0-0.4c0,0,0,0,0-0.2
		s0-0.2,0-0.4c0,0,0,0,0-0.2s0-0.2,0-0.4c0,0,0,0,0-0.2s0-0.2,0-0.4c0,0,0,0,0-0.2s0-0.2,0-0.4c0,0,0,0,0-0.2s0-0.2,0-0.4
		c0,0,0,0,0-0.2s0-0.2,0-0.4c0,0,0,0,0-0.2c0,1.6,0,1.6,0,1.4c0,0,0,0,0-0.2s0-0.2,0-0.4c0,0,0,0,0-0.2s0-0.2,0-0.4c0,0,0,0,0-0.2
		s0-0.2,0-0.4c0,0,0,0,0-0.2s0-0.2,0-0.4c0,0,0,0,0-0.2s0-0.2,0-0.4c0,0,0,0,0-0.2s0-0.2,0-0.4c0,0,0,0,0-0.2s0-0.2,0-0.4
		c0,0,0,0,0-0.2c0,0.8,0,0.6,0,0.6s0,0,0-0.2s0-0.2,0-0.4c0,0,0,0,0-0.2V13v-0.2v-0.2c0-0.6,0-1,0-1.6c0-0.2,0-0.4,0-0.6h0.2
		c3.8,0,7.8,0,11.6,0c0.2,0,0.4,0,0.4,0s0,0,0.2,0s0.2,0,0.4,0c0,0,0,0,0.2,0c1.6,0.2,3.2,0.6,4.6,1.6c1.6,1.2,2.6,3,2.8,5
		s0,3.8-1.2,5.4c-1,1.2-2.2,2.2-3.6,2.6c-0.2,0-0.6,0-0.8,0.2c0.4,0.2,0.6,0.2,0.8,0.2c2.2,0.6,3.8,1.6,4.8,3.6
		c0.4,1,0.6,2.2,0.8,3.4l0,0l0,0c0,0.2,0,0.4,0,0.4c0,0.2,0,0.2,0,0.4c-0.2,2.2-0.8,4-2.6,5.6c-1.4,1.2-2.8,1.8-4.6,2.2
		c-0.4,0.2-1,0.2-1.4,0.2c-0.2,0-0.4,0-0.8,0c-3.8,0-7.8,0-11.6,0H122c0,0,0,0,0-0.2s0-0.4,0-0.6c0-0.2,0-0.4,0-0.6v-0.2
		c0-0.2,0-0.2,0-0.4s0-0.2,0-0.4c0,0,0,0,0-0.2s0-0.2,0-0.4c0,0,0,0,0-0.2s0-0.2,0-0.4c0,0,0,0,0-0.2s0-0.2,0-0.4c0,0,0,0,0-0.2
		s0-0.2,0-0.4c0,0,0,0,0-0.2s0-0.2,0-0.4c0,0,0,0,0-0.2s0-0.2,0-0.4c0,0,0,0,0-0.2s0-0.2,0-0.4c0,0,0,0,0-0.2s0-0.2,0-0.4
		c0,0,0,0,0-0.2s0-0.2,0-0.4c0,0,0,0,0-0.2s0-0.2,0-0.4c0,0,0,0,0-0.2s0-0.2,0-0.4c0,0,0,0,0-0.2s0-0.2,0-0.4c0,0,0,0,0-0.2
		s0-0.2,0-0.4c0,0,0,0,0-0.2s0-0.2,0-0.4c0,0,0,0,0-0.2s0-0.2,0-0.4c0,0,0,0,0-0.2s0-0.2,0-0.4c0,0,0,0,0-0.2s0-0.2,0-0.4
		c0,0,0,0,0-0.2s0-0.2,0-0.4c0,0,0,0,0-0.2s0-0.2,0-0.4c0,0,0,0,0-0.2s0-0.2,0-0.4c0,0,0,0,0-0.2s0-0.2,0-0.4c0,0,0,0,0-0.2
		s0-0.2,0-0.4c0,0,0,0,0-0.2S122,25.2,122,24.8C122,25,122,25,122,24.8s0-0.2,0-0.4c0,0,0,0,0-0.2s0-0.2,0-0.4c0,0,0,0,0-0.2
		s0-0.2,0-0.4c0,0,0,0,0-0.2s0-0.2,0-0.4c0,0,0,0,0-0.2s0-0.2,0-0.4c0,0,0,0,0-0.2s0-0.2,0-0.4c0,0,0,0,0-0.2s0-0.2,0-0.4
		c0,0,0,0,0-0.2C122,25.2,122,25,122,24.8L122,24.8z M129.4,28.6L129.4,28.6c-0.2,2.6-0.2,5.4-0.2,8c1,0,1.8,0,2.8,0
		c0.2,0,0.4,0,0.6,0c1.8-0.4,3-1.2,3.2-3.2c0.2-1.4,0-2.8-1-3.8c-0.8-0.8-1.8-1-3-1c-0.6,0-1.4,0-2,0c0,0,0,0-0.2,0
		C129.6,28.6,129.6,28.6,129.4,28.6z M129.2,15.8c0,2.6,0,5,0,7.6c1,0,2,0,2.8-0.2c1.2-0.2,2.2-0.6,2.8-1.8c0.4-0.8,0.6-1.6,0.4-2.6
		c-0.2-1.2-0.8-2.2-2-2.6C131.8,15.6,130.6,15.8,129.2,15.8z"/>
	<path class="st0" d="M154.4,29.4c0,1,0,2,0,3c0,3,0,6,0,9c0,0.2,0,0.4,0,0.6c-2.4,0-5,0-7.4,0c0-10.2,0-20.2,0-30.4l0,0l0,0
		c0-0.2,0-0.2,0-0.4s0-0.4,0.2-0.6c4.2,0,8.2,0,12.4,0c0,0,0,0,0.2,0c1.6,0.2,3.4,0.6,4.8,1.4c1.4,0.8,2.4,1.8,3,3.2
		c0.4,1.2,0.8,2.8,0.4,4.4c-0.2,1-0.4,2-0.8,2.8c-0.8,1.6-2.2,2.8-4,3.4c-0.4,0.2-0.6,0.2-1,0.4c-0.2,0-0.2,0-0.4,0.2
		c0.2,0,0.2,0.2,0.4,0.2c0.4,0.2,0.8,0.2,1.2,0.4c1,0.6,1.6,1.6,2,2.8c0.8,2.4,1.6,5,2.4,7.4c0.4,1.4,0.8,2.8,1.4,4
		c0,0.2,0.2,0.4,0.2,0.6c0,0-0.2,0-0.2,0.2c-2.4,0-5,0-7.6,0c-0.2-0.6-0.4-1.2-0.6-1.6c-0.6-1.8-1-3.4-1.6-5.2
		c-0.2-0.8-0.4-1.6-0.6-2.2c-0.4-0.8-0.8-1.6-1.2-2.4c-0.4-0.6-1-1-1.8-1c-0.2,0-0.4,0-0.6-0.2c0,0,0,0-0.2,0
		C155.2,29.4,154.8,29.4,154.4,29.4L154.4,29.4z M156.8,24c0.2,0,0.4,0,0.4,0c1.8-0.2,3-1.6,3.2-3.4v-0.2c0-0.4,0-0.6,0-1v-0.2
		c0-0.2,0-0.2-0.2-0.4c-0.2-1.4-1.2-2.4-2.6-2.6c-0.8-0.2-1.8-0.2-2.8-0.2h-0.2c-0.2,0-0.4,0-0.4,0c-0.2,1.2-0.2,7.6,0,8
		C155,24,156,24,156.8,24z"/>
	<path class="st1" d="M109.4,22.4c0-1.2,0-2.4,0-3.6c2.2,0,4.6,0,6.8,0c0,0.2,0,0.4,0,0.6c0,0.8-0.2,1.8-0.2,2.6
		c0,5.8,0,11.4,0,17.2c0,1.8-0.2,3.8-0.8,5.6c-1.2,3.8-3.8,6.2-7.8,7c-2.4,0.6-5,0.4-7.4,0c-1.6-0.2-3-0.6-4.6-1
		c0-2,0.2-3.8,0.2-5.8c0.6,0.2,1,0.4,1.4,0.6c1.2,0.4,2.4,1,3.6,1.2c1.6,0.4,3.4,0.4,5-0.2c1.4-0.4,2.2-1.4,2.6-2.6
		c0.2-0.8,0.4-1.8,0.6-2.6c0.2-1,0.2-1.8,0.2-2.8c0-0.2,0-0.2,0-0.6c-0.2,0.2-0.4,0.4-0.4,0.6c-1.8,3.2-5.8,4.2-9,2.8
		c-2.2-1-3.6-2.8-4.4-5c-0.6-1.4-0.8-3-0.8-4.6c0-1.8,0-3.4,0.2-5.2c0.2-2.4,1.2-4.6,3-6.4c1.6-1.8,3.8-2.2,6.2-2
		c1.2,0.2,2.2,0.4,3.2,1.2c0.6,0.4,1.2,1,1.6,1.8C108.8,21.6,109,22,109.4,22.4L109.4,22.4z M101.8,30c0,1,0,1.8,0.2,2.8
		s0.4,2,0.8,2.8c1,2,3.6,1.8,4.6,0.6c0.6-0.6,0.8-1.4,1-2.2c0.4-1.6,0.4-3,0.4-4.6c0-1.2-0.2-2.6-0.8-3.8c-0.4-0.8-0.8-1.6-1.8-2
		c-1.6-0.6-3.4,0.2-4,2C102,27,101.8,28.4,101.8,30z"/>
	<path class="st0" d="M179.2,35c-0.4,1-0.6,2-1,2.8c-0.4,1.2-0.8,2.4-1,3.6c0,0.4-0.2,0.4-0.6,0.4c-2.2,0-4.4,0-6.6,0
		c0,0,0,0-0.2-0.2c0.8-2.2,1.6-4.4,2.2-6.8c1-3.2,2.2-6.4,3.2-9.6c1-3,2-6,3-9c0.6-2,1.4-4,2-6.2c0.2,0,0.4,0,0.6,0c2.4,0,4.6,0,7,0
		c0.4,0,0.6,0.2,0.8,0.6c1,3.2,2,6.4,3,9.4c0.8,2.2,1.4,4.6,2.2,6.8c0.8,2.4,1.6,4.8,2.4,7.2c0.4,1.4,1,3,1.4,4.4
		c0.4,1,0.6,1.8,1,2.8c-0.4,0.2-6.4,0.2-7.6,0c-0.6-2.4-1.2-4.6-2-7c-3,0-6,0-8.8,0c0,0,0,0-0.2,0h-0.2c-0.2,0-0.2,0-0.4,0
		C179.4,35,179.4,35,179.2,35L179.2,35z M184.2,16.8c-0.4,1.2-0.8,2.4-1.2,3.6s-0.8,2.6-1,3.8c-0.4,1.6-1,3.4-1.4,5
		c-0.2,0.4,0,0.6,0.4,0.6c2,0,4,0,6,0c0.2,0,0.4,0,0.6,0C187.2,27.6,184.6,17,184.2,16.8z"/>
	<path class="st1" d="M74.8,10.6c2.6,0,5.4,0,8,0C86.2,21,89.6,31.4,93,42c-0.2,0-0.4,0.2-0.6,0.2c-2,0-4.2,0-6.2,0
		c-0.6,0-0.8-0.2-0.8-0.6c-0.4-1.8-1-3.4-1.4-5.2c-0.4-1.2-0.4-1.2-1.6-1.2c-2.6,0-5.2,0-7.6,0c-0.4,0-0.8,0-1,0
		c-0.6,2.2-1.4,4.4-2,6.6c-0.2,0.4-0.2,0.6-0.6,0.6c-2,0-4.2,0-6.2,0h-0.2C67.8,31.4,71.4,21,74.8,10.6z M78.8,16.8L78.8,16.8
		c-1.4,4.2-2.6,8.6-3.8,13c2.4,0,4.8,0,7.2,0C81,25.2,80,21,78.8,16.8z"/>
	<path class="st0" d="M52.8,23.6c0,0.6,0,1,0.2,1.6v0.2c0,0.2,0,0.2,0,0.4c0,0,0,0,0,0.2s0,0.6,0,0.8c0,0,0,0,0,0.2
		c0,2.2-0.4,4.4-1,6.4c-0.6,2.4-1.6,4.6-3,6.8c-1,1.8-2.2,3.4-3.6,4.8c-0.6,0.8-1.4,1.4-2.2,2c-1.6,1-3.4,2-5.2,3
		c-2.2,1-4.6,1.8-7,2.2c-1,0.2-2,0.2-2.8,0.2c-1.6,0-3.4,0-5,0c-1.2-0.2-2.6-0.4-3.8-0.8c-1-0.2-2-0.6-3-1c-0.6-0.2-1.2-0.6-1.8-0.8
		c-0.8-0.4-1.8-1-2.6-1.6c-1.6-1-3.2-2.4-4.6-3.8C5,41.8,3,39,1.8,35.6C1,33.8,0.6,32,0.4,30.2C0.2,30,0,29.6,0,29.2
		C1,29,1.8,29,2.6,28.8c0,0,0,0,0.2,0S3,29,3.2,29l0,0l0,0v0.2v0.2C3.4,31,3.8,32.6,4.4,34c0.8,2.2,1.8,4.2,3.4,6.2
		c2.6,3.2,5.6,5.8,9.4,7.4c1.8,0.8,3.8,1.2,5.6,1.6c0.8,0.2,1.4,0.2,2.2,0.2c0,0,0,0,0.2,0h0.2c0.2,0,0.4,0,0.6,0c0.8,0,1.6,0,2.4,0
		c0,0,0,0,0.2,0c2.6-0.2,5.2-0.8,7.6-2c3-1.4,5.6-3.2,7.8-5.6c1.4-1.6,2.6-3.2,3.6-5c0.6-1.4,1.2-2.8,1.6-4.2
		c0.2-0.8,0.4-1.6,0.6-2.4c0.2-0.6,0.2-1.4,0.2-2c0,0,0,0,0-0.2c0-1.2,0-2.4,0-3.6v-0.2c-0.4-3.4-1.2-6.6-3-9.4c-1-1.4-2-2.8-3.2-4
		c-1.6-1.4-3.2-3-5-4c-1.6-1-3.4-2-5.4-2.4c-1.2-0.2-2.6-0.6-3.8-1c-1.6-0.2-3.4-0.4-5-0.2c-1,0-1.8,0.2-2.8,0.4c-0.2,0-0.2,0-0.4,0
		c-0.2-1-0.4-2-0.4-2.8c0,0,0,0,0-0.2c0.8-0.2,1.8-0.2,2.6-0.4c0,0,0,0,0.2,0c1,0,2-0.2,3.2-0.2c0.2,0,0.2,0,0.4,0
		c0.2,0,0.2,0,0.4,0c0,0,0,0,0.2,0c6.4,0.4,12.2,2.8,16.8,7.2S52,17,52.8,23.6L52.8,23.6L52.8,23.6z"/>
	<path class="st0" d="M10,27.8c0.2,3.4,1.6,6.6,3.8,9.2c1.8,2.2,4.2,3.8,7,4.8c1.6,0.6,3.4,1,5.2,1c1.2,0,2.2,0,3.4-0.2
		c1-0.2,2.2-0.6,3.2-0.8c0.2,0,0.4-0.2,0.6-0.2c0.4,1,0.8,1.8,1.2,2.8c-2,0.8-4,1.4-6.2,1.6c0,0,0,0-0.2,0h-0.2h-0.2h-0.2
		c0,0,0,0-0.2,0c-2,0.2-4-0.2-5.8-0.8c-2.6-0.8-5-2-7-3.6s-3.6-3.4-4.8-5.6c-1.2-2-2-4-2.4-6.2C7,28.6,7,27.4,6.8,26.4v-0.2
		c0-0.2,0-0.2,0-0.4v-0.2c0-0.4,0-1,0-1.4c0.4-1.4,0.6-3,1-4.4c0.8-2.2,2-4.4,3.6-6.2c2.6-2.8,5.6-4.8,9.4-6C22,7.2,23.2,7,24.4,7
		c0.4,0,0.8,0,1-0.2c0,0,0,0,0.2,0s0.2,0,0.4,0c0.2,0,0.4,0,0.4,0c0.2,0,0.2,0,0.4,0c0,0,0,0,0.2,0c1.8,0.2,3.4,0.4,5,0.8
		c1.6,0.4,3,1.2,4.4,2c1.6,1,3.2,2.2,4.4,3.6c1.8,2,3.2,4.2,4,6.8c0.4,1.2,0.6,2.4,1,3.4c0,0.2,0,0.6-0.2,0.6
		c-0.8,0-1.6,0.2-2.4,0.2H43c-0.2-0.6-0.2-1.4-0.4-2c-0.6-2.6-1.8-5-3.8-6.8C37.2,14,36,12.8,34.2,12c-1.8-1-3.6-1.6-5.6-1.8
		C27.4,10,26.4,10,25.2,10H25c-2.8,0.2-5.4,1-7.6,2.6c-2.6,1.8-4.6,4-6,6.8c-0.6,1.2-1.2,2.6-1.2,4C9.8,24.8,10,26.2,10,27.8
		C9.8,27.8,9.8,27.8,10,27.8z"/>
	<path class="st0" d="M209,15.4c0,0.2,0,0.2,0,0.4c0,0,0,0,0,0.2s0,0.2,0,0.4c0,0,0,0,0,0.2s0,0.2,0,0.4c0,0,0,0,0,0.2s0,0.2,0,0.4
		c0,0,0,0,0,0.2s0,0.2,0,0.4c0,0,0,0,0,0.2s0,0.2,0,0.4c0,0,0,0,0,0.2s0,0.2,0,0.4c0,0,0,0,0,0.2s0,0.2,0,0.4c0,0,0,0,0,0.2
		s0,0.2,0,0.4c0,0,0,0,0,0.2s0,0.2,0,0.4c0,0,0,0,0,0.2s0,0.2,0,0.4c0,0,0,0,0,0.2s0,0.2,0,0.4c0,0,0,0,0,0.2s0,0.2,0,0.4
		c0,0,0,0,0,0.2s0,0.2,0,0.4c0,0,0,0,0,0.2s0,0.2,0,0.4c0,0,0,0,0,0.2s0,0.2,0,0.4c0,0,0,0,0,0.2s0,0.2,0,0.4c0,0,0,0,0,0.2
		s0,0.2,0,0.4c0,0,0,0,0,0.2s0,0.2,0,0.4c0,0,0,0,0,0.2s0,0.2,0,0.4c0,0,0,0,0,0.2s0,0.2,0,0.4c0,0,0,0,0,0.2s0,0.2,0,0.4
		c0,0,0,0,0,0.2s0,0.2,0,0.4c0,0,0,0,0,0.2s0,0.2,0,0.4c0,0,0,0,0,0.2s0,0.2,0,0.4c0,0,0,0,0,0.2s0,0.2,0,0.4c0,0,0,0,0,0.2
		s0,0.2,0,0.4c0,0,0,0,0,0.2s0,0.2,0,0.4c0,0,0,0,0,0.2s0,0.2,0,0.4c0,0,0,0,0,0.2s0,0.2,0,0.4c0,0,0,0,0,0.2s0,0.2,0,0.4
		c0,0,0,0,0,0.2s0,0.2,0,0.4c0,0,0,0,0,0.2s0,0.2,0,0.4c0,0,0,0,0,0.2s0,0.2,0,0.4c0,0,0,0,0,0.2s0,0.2,0,0.4c0,0,0,0,0,0.2
		s0,0.2,0,0.4c0,0,0,0,0,0.2s0,0.2,0,0.4c0,0,0,0,0,0.2s0,0.2,0,0.4c0,0,0,0,0,0.2c0,1,0,1.8,0,2.8c0,0,0,0,0,0.2
		c0,0.4-0.2,0.4-0.4,0.4c-1.2,0-2.4,0-3.6,0c-1,0-2.2,0-3.2,0c0-10.6,0-21,0-31.6c2.4,0,4.8,0,7.4,0c0,0,0,0.2,0,0.4s0,0.2,0,0.4
		c0,0.4,0,0.8,0,1.2c0,0,0,0,0,0.2c0,0.6,0,1.2,0,1.8c0,0,0,0,0,0.2s0,0.2,0,0.4c0,0,0,0,0,0.2S209.2,15,209,15.4
		C209.2,15.2,209.2,15.2,209,15.4c0.2,0.2,0.2,0.2,0.2,0.4c0,0,0,0,0,0.2s0,0.2,0,0.4c0,0,0,0,0,0.2s0,0.2,0,0.4c0,0,0,0,0,0.2
		s0,0.2,0,0.4c0,0,0,0,0,0.2s0,0.2,0,0.4c0,0,0,0,0,0.2s0,0.2,0,0.4c0,0,0,0,0,0.2s0,0.2,0,0.4c0,0,0,0,0,0.2s0,0.2,0,0.4
		c0,0,0,0,0,0.2s0,0.2,0,0.4c0,0,0,0,0,0.2s0,0.2,0,0.4c0,0,0,0,0,0.2C209,15,209,15.2,209,15.4C209,15.2,209,15.4,209,15.4z"/>
	<path class="st0" d="M16.2,26.8c0,3.6,1.8,6,4.6,8c1.2,0.8,2.6,1.4,4,1.6c0.8,0,1.4,0,2.2,0h0.2c3.4-0.4,5.8-1.8,7.6-4.6
		c0.8-1.2,1-2.6,1.4-3.8c0.2-1,0.2-2,0-3c-0.2-1.8-0.8-3.4-2-4.8c-1.2-1.2-2.4-2.4-4.2-3c-1.2-0.4-2.4-0.8-3.6-0.8c0,0-0.2,0-0.4,0
		c0-0.8,0-1.8,0-2.6c0,0,0,0,0.2-0.2h0.2h0.2c4.2,0.4,7.4,2,9.8,5.4c1,1.4,1.8,3.2,2,4.8c0.2,1.2,0.4,2.4,0.2,3.6
		c-0.6,5-3.4,8.6-8,10.6c-2,0.8-4.2,1.2-6.6,0.8c-2.6-0.4-4.8-1.4-6.6-3.2c-1.6-1.2-2.6-3-3.4-4.6c0-1-0.4-2.2-0.4-3.4
		c0-0.6-0.2-1.2,0-1.6c0-1.4,0.4-3,1-4.4c0-0.2,0.2-0.4,0.4-0.2c0.6,0.2,1.2,0.4,2,0.8c0,0.4-0.2,0.8-0.2,1c-0.4,1-0.6,2-0.6,3
		c0,0,0,0,0,0.2C16.2,26.4,16.2,26.6,16.2,26.8L16.2,26.8z"/>
	<path class="st0" d="M20.4,26.4c-0.2-3.2,2.6-6,6-6s6,2.6,6,5.8c0,3.4-2.6,6-5.8,6C23.2,32.4,20.2,29.4,20.4,26.4z"/>
	<path class="st1" d="M137.6,26c-0.2,0-0.6-0.2-0.8-0.2c0.2-0.4,0.4-0.4,0.8-0.2C137.2,25.6,137.6,25.8,137.6,26z"/>
	<path class="st1" d="M122,11.2c0,0.6,0,1,0,1.6C122,12.2,122,11.6,122,11.2z"/>
	<path class="st1" d="M162.2,26.6c-0.2,0-0.2-0.2-0.4-0.2c0.2,0,0.2,0,0.4-0.2C162.2,26.4,162.2,26.4,162.2,26.6z"/>
	<path class="st1" d="M147,10.6c0,0.2,0,0.4-0.2,0.6C146.8,11,146.8,10.8,147,10.6z"/>
	<path class="st1" d="M133.8,42c0.2,0,0.4,0,0.8,0C134.4,42,134,42,133.8,42z"/>
	<path class="st1" d="M169.8,42C169.8,42,170,42,169.8,42c0,0-0.4,0-0.6,0c0,0,0.2,0,0.2-0.2C169.6,42,169.8,42,169.8,42z"/>
	<path class="st1" d="M122,40.6c0,0.2,0,0.4,0,0.6C121.8,41,121.8,40.8,122,40.6z"/>
	<path class="st1" d="M26,49.6c-0.2,0-0.4,0-0.6,0C25.6,49.6,25.8,49.6,26,49.6z"/>
	<path class="st1" d="M232.4,10.6c0,0.2,0,0.4,0,0.6C232.2,11,232.4,10.8,232.4,10.6z"/>
	<path class="st1" d="M220.8,19.8c0-0.2,0-0.2,0-0.4C220.8,19.6,220.8,19.6,220.8,19.8z"/>
	<path class="st1" d="M26.4,6.8c-0.2,0-0.4,0-0.4,0C26.2,6.8,26.2,6.8,26.4,6.8z"/>
	<path class="st1" d="M220.8,21.6c0-0.2,0-0.4,0-0.4S220.8,21.4,220.8,21.6z"/>
	<path class="st1" d="M143,34c0-0.2,0-0.2,0-0.4C143.2,33.8,143.2,33.8,143,34z"/>
	<path class="st1" d="M209,11.2c0-0.2,0-0.2,0-0.4C208.8,11,208.8,11.2,209,11.2z"/>
	<path class="st1" d="M220.8,20.4c0-0.2,0-0.2,0-0.4C220.8,20.2,220.8,20.2,220.8,20.4z"/>
	<path class="st1" d="M179.6,35c0.2,0,0.2,0,0.4,0C179.8,35,179.6,35,179.6,35z"/>
	<path class="st1" d="M122,40c0,0.2,0,0.2,0,0.4C122,40.2,122,40.2,122,40z"/>
	<path class="st1" d="M27.2,0C27,0,27,0,26.8,0C27,0,27.2,0,27.2,0z"/>
	<path class="st1" d="M122,12.8L122,12.8C122,13,122,13,122,12.8z"/>
	<path class="st1" d="M6.8,25.6v0.2C6.8,25.8,6.8,25.8,6.8,25.6z"/>
	<path class="st1" d="M232.2,27.6v0.2C232.2,27.8,232.2,27.8,232.2,27.6z"/>
	<path class="st1" d="M27,13.6h-0.2H27z"/>
	<path class="st1" d="M3.2,29.6v-0.2C3.2,29.4,3.2,29.4,3.2,29.6z"/>
	<path class="st1" d="M232.4,30.6v0.2C232.4,30.6,232.4,30.6,232.4,30.6z"/>
	<path class="st1" d="M27.4,36.4h-0.2C27.2,36.4,27.4,36.4,27.4,36.4z"/>
	<path class="st1" d="M209,26L209,26L209,26z"/>
	<path class="st1" d="M6.6,26.2C6.6,26.2,6.6,26.4,6.6,26.2C6.6,26.4,6.6,26.2,6.6,26.2z"/>
	<path class="st1" d="M122,18.2L122,18.2L122,18.2z"/>
	<path class="st1" d="M209,18.4C209,18.4,209,18.2,209,18.4C209,18.2,209,18.4,209,18.4z"/>
	<path class="st1" d="M122,17.6C122,17.6,122,17.8,122,17.6C122,17.8,122,17.6,122,17.6z"/>
	<path class="st1" d="M122,18.6C122,18.6,122,18.8,122,18.6C122,18.8,122,18.6,122,18.6z"/>
	<path class="st1" d="M209,18.8L209,18.8L209,18.8z"/>
	<path class="st1" d="M122,19C122,19.2,122,19.2,122,19C122,19.2,122,19.2,122,19z"/>
	<path class="st1" d="M209,17.4L209,17.4L209,17.4z"/>
	<path class="st1" d="M209,19.4C209,19.2,209,19.2,209,19.4C209,19.2,209,19.2,209,19.4z"/>
	<path class="st1" d="M122,17.2L122,17.2L122,17.2z"/>
	<path class="st1" d="M122,19.6L122,19.6L122,19.6z"/>
	<path class="st1" d="M209,19.8L209,19.8L209,19.8z"/>
	<path class="st1" d="M122,20C122,20,122,20.2,122,20C122,20.2,122,20,122,20z"/>
	<path class="st1" d="M209,17C209,17,209,16.8,209,17C209,16.8,209,17,209,17z"/>
	<path class="st1" d="M209,20.2L209,20.2L209,20.2z"/>
	<path class="st1" d="M122,16.6C122,16.8,122,16.8,122,16.6C122,16.8,122,16.8,122,16.6z"/>
	<path class="st1" d="M209,16.4L209,16.4L209,16.4z"/>
	<path class="st1" d="M122,20.6L122,20.6L122,20.6z"/>
	<path class="st1" d="M209,20.8C209,20.8,209,20.6,209,20.8C209,20.6,209,20.8,209,20.8z"/>
	<path class="st1" d="M122,21L122,21L122,21z"/>
	<path class="st1" d="M209,21.2L209,21.2L209,21.2z"/>
	<path class="st1" d="M122,16.2C122,16.2,122,16.4,122,16.2C122,16.4,122,16.2,122,16.2z"/>
	<path class="st1" d="M122,21.4C122,21.6,122,21.6,122,21.4C122,21.6,122,21.6,122,21.4z"/>
	<path class="st1" d="M209,21.8C209,21.6,209,21.6,209,21.8C209,21.6,209,21.6,209,21.8z"/>
	<path class="st1" d="M122,22L122,22L122,22z"/>
	<path class="st1" d="M209,22.2L209,22.2L209,22.2z"/>
	<path class="st1" d="M220.8,22.4L220.8,22.4L220.8,22.4L220.8,22.4z"/>
	<path class="st1" d="M122,22.4C122,22.4,122,22.6,122,22.4C122,22.6,122,22.4,122,22.4z"/>
	<path class="st1" d="M209,22.6L209,22.6L209,22.6z"/>
	<path class="st1" d="M122,22.8C122,23,122,23,122,22.8C122,23,122,23,122,22.8z"/>
	<path class="st1" d="M209,23.2C209,23.2,209,23,209,23.2C209,23,209,23.2,209,23.2z"/>
	<path class="st1" d="M209,16L209,16L209,16z"/>
	<path class="st1" d="M122,23.4L122,23.4L122,23.4z"/>
	<path class="st1" d="M52.8,23.6L52.8,23.6L52.8,23.6L52.8,23.6L52.8,23.6z"/>
	<path class="st1" d="M209,23.6L209,23.6L209,23.6z"/>
	<path class="st1" d="M122,23.8C122,23.8,122,24,122,23.8C122,24,122,23.8,122,23.8z"/>
	<path class="st1" d="M122,15.8L122,15.8L122,15.8z"/>
	<path class="st1" d="M209,24L209,24L209,24z"/>
	<path class="st1" d="M49.8,24.4L49.8,24.4L49.8,24.4z"/>
	<path class="st1" d="M122,24.4L122,24.4L122,24.4z"/>
	<path class="st1" d="M209,24.6C209,24.6,209,24.4,209,24.6C209,24.4,209,24.6,209,24.6z"/>
	<path class="st1" d="M122,24.8L122,24.8L122,24.8z"/>
	<path class="st1" d="M209,25L209,25L209,25z"/>
	<path class="st1" d="M53,25.4L53,25.4L53,25.4z"/>
	<path class="st1" d="M122,25.2C122,25.4,122,25.4,122,25.2C122,25.4,122,25.4,122,25.2z"/>
	<path class="st1" d="M209,15.6C209,15.4,209,15.4,209,15.6C209,15.4,209,15.4,209,15.6z"/>
	<path class="st1" d="M209,25.6C209,25.4,209,25.4,209,25.6C209,25.4,209,25.4,209,25.6z"/>
	<path class="st1" d="M122,15.2C122,15.4,122,15.4,122,15.2C122,15.4,122,15.4,122,15.2z"/>
	<path class="st1" d="M53,25.8L53,25.8L53,25.8z"/>
	<path class="st1" d="M122,25.8L122,25.8L122,25.8z"/>
	<path class="st1" d="M209,15L209,15L209,15z"/>
	<path class="st1" d="M122,14.8L122,14.8L122,14.8z"/>
	<path class="st1" d="M16.2,26.4C16.2,26.4,16.2,26.2,16.2,26.4C16.2,26.2,16.2,26.4,16.2,26.4z"/>
	<path class="st1" d="M122,26.2C122,26.2,122,26.4,122,26.2C122,26.4,122,26.2,122,26.2z"/>
	<path class="st1" d="M209,14.6C209,14.6,209,14.4,209,14.6C209,14.4,209,14.6,209,14.6z"/>
	<path class="st1" d="M209,26.4L209,26.4L209,26.4z"/>
	<path class="st1" d="M232.2,26.4L232.2,26.4L232.2,26.4z"/>
	<path class="st1" d="M16.2,26.8L16.2,26.8L16.2,26.8z"/>
	<path class="st1" d="M53,26.8L53,26.8L53,26.8z"/>
	<path class="st1" d="M122,26.6C122,26.8,122,26.8,122,26.6C122,26.8,122,26.8,122,26.6z"/>
	<path class="st1" d="M209,27C209,27,209,26.8,209,27C209,26.8,209,27,209,27z"/>
	<path class="st1" d="M122,27.2L122,27.2L122,27.2z"/>
	<path class="st1" d="M209,27.4L209,27.4L209,27.4z"/>
	<path class="st1" d="M10,27.8C9.8,27.8,9.8,27.8,10,27.8C10,27.6,10,27.8,10,27.8L10,27.8z"/>
	<path class="st1" d="M122,27.6C122,27.6,122,27.8,122,27.6C122,27.8,122,27.6,122,27.6z"/>
	<path class="st1" d="M122,14.4L122,14.4L122,14.4z"/>
	<path class="st1" d="M209,28C209,27.8,209,27.8,209,28C209,27.8,209,27.8,209,28z"/>
	<path class="st1" d="M49.8,28.2L49.8,28.2L49.8,28.2z"/>
	<path class="st1" d="M122,28.2L122,28.2L122,28.2z"/>
	<path class="st1" d="M232.4,28.2L232.4,28.2L232.4,28.2z"/>
	<path class="st1" d="M209,28.4C209,28.4,209,28.2,209,28.4C209,28.2,209,28.4,209,28.4z"/>
	<path class="st1" d="M122,13.8C122,13.8,122,14,122,13.8C122,14,122,13.8,122,13.8z"/>
	<path class="st1" d="M26.6,13.6C26.6,13.6,26.4,13.6,26.6,13.6C26.4,13.6,26.6,13.6,26.6,13.6z"/>
	<path class="st1" d="M122,28.6L122,28.6L122,28.6z"/>
	<path class="st1" d="M232.4,28.6L232.4,28.6L232.4,28.6z"/>
	<path class="st1" d="M209,18C209,17.8,209,17.8,209,18C209,17.8,209,17.8,209,18z"/>
	<path class="st1" d="M209,28.8L209,28.8L209,28.8z"/>
	<path class="st1" d="M3.2,29.2C3.2,29,3.2,29,3.2,29.2C3.2,29,3.2,29,3.2,29.2C3.2,29,3.2,29,3.2,29.2z"/>
	<path class="st1" d="M122,29C122,29.2,122,29.2,122,29C122,29.2,122,29.2,122,29z"/>
	<path class="st1" d="M232.4,29C232.4,29.2,232.4,29.2,232.4,29C232.4,29.2,232.4,29.2,232.4,29z"/>
	<path class="st1" d="M209,29.4C209,29.2,209,29.2,209,29.4C209,29.2,209,29.2,209,29.4z"/>
	<path class="st1" d="M122,13.4L122,13.4L122,13.4z"/>
	<path class="st1" d="M154.4,29.4L154.4,29.4L154.4,29.4z"/>
	<path class="st1" d="M155.4,29.4C155.4,29.4,155.6,29.4,155.4,29.4C155.6,29.4,155.4,29.4,155.4,29.4z"/>
	<path class="st1" d="M209,12.6L209,12.6L209,12.6z"/>
	<path class="st1" d="M122,29.6L122,29.6L122,29.6z"/>
	<path class="st1" d="M232.4,29.6L232.4,29.6L232.4,29.6z"/>
	<path class="st1" d="M209,29.8L209,29.8L209,29.8z"/>
	<path class="st1" d="M122,30C122,30,122,30.2,122,30C122,30.2,122,30,122,30z"/>
	<path class="st1" d="M232.4,30C232.4,30,232.4,30.2,232.4,30C232.4,30.2,232.4,30,232.4,30z"/>
	<path class="st1" d="M209,30.2L209,30.2L209,30.2z"/>
	<path class="st1" d="M122,30.6L122,30.6L122,30.6z"/>
	<path class="st1" d="M146.8,11.6L146.8,11.6C146.8,11.6,146.8,11.8,146.8,11.6L146.8,11.6z"/>
	<path class="st1" d="M209,30.8C209,30.8,209,30.6,209,30.8C209,30.6,209,30.8,209,30.8z"/>
	<path class="st1" d="M122,31L122,31L122,31z"/>
	<path class="st1" d="M209,31.2L209,31.2L209,31.2z"/>
	<path class="st1" d="M122,31.4C122,31.6,122,31.6,122,31.4C122,31.6,122,31.6,122,31.4z"/>
	<path class="st1" d="M209,31.8C209,31.6,209,31.6,209,31.8C209,31.6,209,31.6,209,31.8z"/>
	<path class="st1" d="M122,32L122,32L122,32z"/>
	<path class="st1" d="M209,32.2L209,32.2L209,32.2z"/>
	<path class="st1" d="M122,32.4C122,32.4,122,32.6,122,32.4C122,32.6,122,32.4,122,32.4z"/>
	<path class="st1" d="M209,32.6L209,32.6L209,32.6z"/>
	<path class="st1" d="M122,32.8C122,33,122,33,122,32.8C122,33,122,33,122,32.8z"/>
	<path class="st1" d="M143.2,33.2C143.2,33.2,143.2,33,143.2,33.2C143.2,33,143.2,33,143.2,33.2C143.2,33,143.2,33,143.2,33.2
		L143.2,33.2z"/>
	<path class="st1" d="M209,33.2C209,33,209,33,209,33.2C209,33,209,33,209,33.2z"/>
	<path class="st1" d="M122,33.4L122,33.4L122,33.4z"/>
	<path class="st1" d="M209,33.6L209,33.6L209,33.6z"/>
	<path class="st1" d="M159.4,10.6L159.4,10.6L159.4,10.6z"/>
	<path class="st1" d="M122,33.8C122,33.8,122,34,122,33.8C122,34,122,33.8,122,33.8z"/>
	<path class="st1" d="M209,34L209,34L209,34z"/>
	<path class="st1" d="M122,34.4L122,34.4L122,34.4z"/>
	<path class="st1" d="M209,34.6C209,34.6,209,34.4,209,34.6C209,34.4,209,34.6,209,34.6z"/>
	<path class="st1" d="M122,34.8L122,34.8L122,34.8z"/>
	<path class="st1" d="M179.2,35L179.2,35L179.2,35z"/>
	<path class="st1" d="M135,10.6C134.8,10.6,134.8,10.6,135,10.6C134.8,10.6,134.8,10.6,135,10.6z"/>
	<path class="st1" d="M180.2,35L180.2,35L180.2,35L180.2,35z"/>
	<path class="st1" d="M209,35L209,35L209,35z"/>
	<path class="st1" d="M122,35.2C122,35.4,122,35.4,122,35.2C122,35.4,122,35.4,122,35.2z"/>
	<path class="st1" d="M209,35.6C209,35.4,209,35.4,209,35.6C209,35.4,209,35.4,209,35.6z"/>
	<path class="st1" d="M122,35.8L122,35.8L122,35.8z"/>
	<path class="st1" d="M209,36L209,36L209,36z"/>
	<path class="st1" d="M122,36.2C122,36.2,122,36.4,122,36.2C122,36.4,122,36.2,122,36.2z"/>
	<path class="st1" d="M134.4,10.6L134.4,10.6L134.4,10.6z"/>
	<path class="st1" d="M209,36.4L209,36.4L209,36.4z"/>
	<path class="st1" d="M122,36.6C122,36.8,122,36.8,122,36.6C122,36.8,122,36.8,122,36.6z"/>
	<path class="st1" d="M209,37C209,37,209,36.8,209,37C209,36.8,209,37,209,37z"/>
	<path class="st1" d="M122,37.2L122,37.2L122,37.2z"/>
	<path class="st1" d="M209,37.4L209,37.4L209,37.4z"/>
	<path class="st1" d="M122,37.6C122,37.6,122,37.8,122,37.6C122,37.8,122,37.6,122,37.6z"/>
	<path class="st1" d="M209,38C209,37.8,209,37.8,209,38C209,37.8,209,37.8,209,38z"/>
	<path class="st1" d="M122,38.2L122,38.2L122,38.2z"/>
	<path class="st1" d="M209,38.4C209,38.4,209,38.2,209,38.4C209,38.2,209,38.4,209,38.4z"/>
	<path class="st1" d="M122,38.6L122,38.6L122,38.6z"/>
	<path class="st1" d="M209,38.8L209,38.8L209,38.8z"/>
	<path class="st1" d="M122,39C122,39.2,122,39.2,122,39C122,39.2,122,39.2,122,39z"/>
	<path class="st1" d="M122,39.6L122,39.6L122,39.6z"/>
	<path class="st1" d="M25,10L25,10L25,10z"/>
	<path class="st1" d="M27,6.8C26.8,6.8,26.8,6.8,27,6.8C26.8,6.8,26.8,6.8,27,6.8z"/>
	<path class="st1" d="M220.8,41.4C220.8,41.4,220.8,41.2,220.8,41.4C220.8,41.2,220.8,41.2,220.8,41.4
		C220.8,41.2,220.8,41.4,220.8,41.4z"/>
	<path class="st1" d="M25.6,6.8L25.6,6.8L25.6,6.8z"/>
	<path class="st1" d="M208.8,41.8C208.8,41.6,208.8,41.6,208.8,41.8C208.8,41.6,208.8,41.6,208.8,41.8z"/>
	<path class="st1" d="M122,42L122,42L122,42z"/>
	<path class="st1" d="M21,0.6L21,0.6L21,0.6z"/>
	<path class="st1" d="M23.8,0.2L23.8,0.2L23.8,0.2z"/>
	<path class="st1" d="M220.6,42L220.6,42L220.6,42z"/>
	<path class="st1" d="M27.2,45.8L27.2,45.8L27.2,45.8z"/>
	<path class="st1" d="M27.4,45.8C27.6,45.8,27.6,45.8,27.4,45.8C27.6,45.8,27.6,45.8,27.4,45.8z"/>
	<path class="st1" d="M27.8,0C27.8,0,27.6,0,27.8,0C27.6,0,27.8,0,27.8,0z"/>
	<path class="st1" d="M27.8,45.8C28,45.8,28,45.8,27.8,45.8C28,45.8,28,45.8,27.8,45.8z"/>
	<path class="st1" d="M28.4,49.4L28.4,49.4L28.4,49.4z"/>
	<path class="st1" d="M25.2,49.4C25,49.4,25,49.4,25.2,49.4C25,49.4,25,49.4,25.2,49.4z"/>
	<path class="st1" d="M2.8,28.8L2.8,28.8L2.8,28.8z"/>
	<path class="st1" d="M129.4,28.6L129.4,28.6L129.4,28.6z"/>
	<path class="st1" d="M129.8,28.6L129.8,28.6L129.8,28.6z"/>
	<path class="st1" d="M156.8,24c0.2,0,0.4,0,0.4,0C157.2,23.8,157,24,156.8,24z"/>
	<path class="st1" d="M154.8,16L154.8,16L154.8,16z"/>
	<path class="st1" d="M160.6,20.6v-0.2C160.6,20.4,160.6,20.4,160.6,20.6z"/>
	<path class="st1" d="M160.6,19.4v-0.2C160.6,19.2,160.6,19.2,160.6,19.4z"/>
</g>
</svg>
