<svg width="22" height="18" viewBox="0 0 22 18" fill="none" xmlns="http://www.w3.org/2000/svg">
<path fill-rule="evenodd" clip-rule="evenodd" d="M21.8002 17.5002C21.8002 17.6656 21.6659 17.7996 21.5002 17.7996H0.500195C0.33451 17.7996 0.200195 17.6656 0.200195 17.5002V4.58105C0.200195 4.31455 0.522803 4.18084 0.711947 4.36895L5.10822 8.74113C5.24381 8.87598 5.46955 8.85131 5.57269 8.69036L10.9895 0.237733C11.0793 0.0977435 11.266 0.0574464 11.4057 0.147951L17.3144 3.9777C17.363 4.00922 17.4198 4.026 17.4778 4.026H21.5002C21.6659 4.026 21.8002 4.16006 21.8002 4.32543V17.5002ZM21.2002 15.8336L11.1711 8.17507L6.90372 14.2639C6.6071 14.6872 6.01486 14.7742 5.60865 14.4542L0.800195 10.6663V17.2008H21.2002V15.8336ZM0.800195 9.9034L5.98038 13.9841C6.11578 14.0908 6.31319 14.0618 6.41207 13.9207L10.8589 7.57575C10.9567 7.43614 11.1514 7.40604 11.287 7.50957L21.2002 15.0796V4.62485H17.4778C17.3038 4.62485 17.1335 4.57452 16.9876 4.47994L11.3322 0.8144L6.07814 9.01304C5.76872 9.49588 5.0915 9.5699 4.68471 9.16534L0.800195 5.30211V9.9034Z" fill="#484847"/>
</svg>
