<svg width="18" height="18" viewBox="0 0 18 18" fill="none" xmlns="http://www.w3.org/2000/svg">
<path d="M2.71285 17.1995C2.12596 17.1995 1.62716 16.994 1.21645 16.5832C0.805547 16.1724 0.600098 15.6736 0.600098 15.0867V12.8901C0.600098 12.6998 0.671368 12.5348 0.81391 12.3953C0.956451 12.2559 1.12529 12.1862 1.32042 12.1862C1.51537 12.1862 1.6818 12.2559 1.81969 12.3953C1.95777 12.5348 2.02681 12.6998 2.02681 12.8901V15.0867C2.02681 15.2583 2.09827 15.4155 2.24118 15.5584C2.3841 15.7013 2.54132 15.7728 2.71285 15.7728H15.2873C15.4589 15.7728 15.6161 15.7013 15.759 15.5584C15.9019 15.4155 15.9734 15.2583 15.9734 15.0867V12.8901C15.9734 12.6998 16.0447 12.5348 16.1875 12.3953C16.33 12.2559 16.4988 12.1862 16.6937 12.1862C16.8888 12.1862 17.0554 12.2559 17.1933 12.3953C17.3311 12.5348 17.4001 12.6998 17.4001 12.8901V15.0867C17.4001 15.6736 17.1946 16.1724 16.7837 16.5832C16.373 16.994 15.8742 17.1995 15.2873 17.1995H2.71285ZM8.26806 3.12916L5.86735 5.53015C5.72796 5.67028 5.56359 5.74508 5.37421 5.75456C5.18484 5.76404 5.01061 5.69639 4.85153 5.55162C4.69784 5.39551 4.62443 5.21961 4.63131 5.02392C4.638 4.82822 4.71382 4.6579 4.85878 4.51294L8.24465 1.12679C8.34036 1.03127 8.44982 0.952846 8.57303 0.891517C8.69624 0.830375 8.83693 0.799805 8.99508 0.799805C9.13762 0.799805 9.26985 0.830375 9.39176 0.891517C9.51386 0.952846 9.62249 1.03108 9.71764 1.12624L13.1085 4.51712C13.2486 4.65725 13.3235 4.82451 13.3332 5.0189C13.3427 5.21348 13.2703 5.38176 13.1161 5.52374C12.9568 5.66851 12.7855 5.73969 12.6023 5.73728C12.419 5.73504 12.2502 5.65671 12.0958 5.50228L9.69478 3.12916V12.2355C9.69478 12.4379 9.62462 12.609 9.48431 12.7488C9.344 12.8883 9.17637 12.9581 8.98142 12.9581C8.78647 12.9581 8.61884 12.8883 8.47853 12.7488C8.33822 12.609 8.26806 12.4379 8.26806 12.2355V3.12916Z" fill="currentColor"/>
</svg>
