<svg xmlns="http://www.w3.org/2000/svg" viewBox="0 0 247.68 63.63"><defs><style>.cls-1{fill:#0069b4;}.cls-2{fill:#04151b;}</style></defs><g id="Exportados_finales" data-name="Exportados finales"><path class="cls-1" d="M5.31,8.56a3.11,3.11,0,1,0-2.2,5.3H6.22v-3.1A3.11,3.11,0,0,0,5.31,8.56ZM20,2.08,18.06.17a.57.57,0,0,0-.82,0l-1.9,1.91a.57.57,0,0,0,0,.82l1.9,1.9a.57.57,0,0,0,.82,0L20,2.9A.57.57,0,0,0,20,2.08ZM12.41,5.62H8.3v4.1a4.14,4.14,0,0,0,4.14,4.14h4.11V9.76A4.14,4.14,0,0,0,12.41,5.62Zm6.26,4.14v4.1h4.11a4.14,4.14,0,0,0,4.14-4.14V5.62H22.81A4.14,4.14,0,0,0,18.67,9.76ZM7.28,15.94v3.11H28V15.94ZM34.39,8.52A3.13,3.13,0,0,0,29,10.73v3.13h3.13a3.14,3.14,0,0,0,3.14-3.13A3.1,3.1,0,0,0,34.39,8.52ZM32.17,21.11H0v29a9.34,9.34,0,0,0,9.34,9.33,10.37,10.37,0,0,1,8.29,4.15A10.37,10.37,0,0,1,26,59.48a9.32,9.32,0,0,0,9.33-9.33v-29ZM13.84,45.83a.15.15,0,0,1-.09.06c0,.11-.52.1-.61,0l-.31-.11-.28-.09a2.93,2.93,0,0,0-1.35,0l-.18.06-.42.15c-.07.07-.52.11-.54,0a.31.31,0,0,1-.19-.18c-.07-.09,0-.32,0-.43L10.7,44l.85-1.48a.42.42,0,0,1,.72,0L13.12,44l.76,1.33C14,45.44,14,45.77,13.84,45.83Zm11.26-.89a1.4,1.4,0,0,1-.45.66,1.34,1.34,0,0,1-.84.26H22.52a1.33,1.33,0,0,1-.83-.26,1.42,1.42,0,0,1-.45-.66,2.86,2.86,0,0,1-.1-.73,2.27,2.27,0,0,1,.12-.75,3.4,3.4,0,0,1,.27-.54A.5.5,0,0,1,22,42.7h2.44a.53.53,0,0,1,.43.22,2.46,2.46,0,0,1,.26.54,2.27,2.27,0,0,1,.12.75A2.43,2.43,0,0,1,25.1,44.94Zm3.57-5.14-1.4,1.89a.91.91,0,0,1-1.3.17l-1.31-1H19.18V51.74l1.13,1.42a.64.64,0,0,1-.44,1,23.42,23.42,0,0,1-4.43,0,.64.64,0,0,1-.44-1l1.12-1.42V40.82H10.65l-1.32,1A.9.9,0,0,1,8,41.69L6.63,39.8a.93.93,0,0,1,0-1.08L8,36.83a.9.9,0,0,1,1.29-.17l1.32,1.05h5.47V30.52l-1.07-1.34a.92.92,0,0,1,.17-1.3l1.89-1.4a.9.9,0,0,1,1.08,0l1.89,1.4a.91.91,0,0,1,.17,1.3l-1.07,1.34v7.19h5.48L26,36.66a.92.92,0,0,1,1.3.17l1.4,1.89A.9.9,0,0,1,28.67,39.8Z"/><path class="cls-2" d="M62.16,21.06,48.28,56.27h7.94l2.66-7H72.1l2.64,7h8.2L69.15,21.06Zm-.92,21.88,1.88-5c.27-.8.55-1.6.85-2.39s.59-1.59.86-2.41.49-1.57.72-2.35c.22.75.46,1.51.71,2.3s.56,1.74.83,2.56.52,1.55.76,2.19l1.9,5.08Z"/><path class="cls-2" d="M104.42,43.6a9.34,9.34,0,0,0-2.7-1.89,22.62,22.62,0,0,0-4.1-1.48c-1.27-.34-2.27-.64-3-.91a10.32,10.32,0,0,1-1.58-.7,2,2,0,0,1-.81-.78,2.66,2.66,0,0,1-.3-1,2,2,0,0,1,.23-.93,2.24,2.24,0,0,1,.65-.73,2.68,2.68,0,0,1,1.06-.42,6.83,6.83,0,0,1,1.43-.13,7.08,7.08,0,0,1,2.19.4,11.12,11.12,0,0,1,2.31,1.11,14.2,14.2,0,0,1,2,1.51l4-4.48a11.76,11.76,0,0,0-3-2.16,17.69,17.69,0,0,0-3.7-1.41,16.73,16.73,0,0,0-4.12-.5,13.25,13.25,0,0,0-4,.58,11.16,11.16,0,0,0-3.37,1.66,7.9,7.9,0,0,0-2.31,2.56,6.69,6.69,0,0,0-.83,3.35A7.37,7.37,0,0,0,85.1,40a7.24,7.24,0,0,0,1.51,2.32,9.54,9.54,0,0,0,2.82,2,23.8,23.8,0,0,0,4.22,1.51c1.11.27,2,.53,2.72.78a15.17,15.17,0,0,1,1.56.63,1.91,1.91,0,0,1,.85,1.66,2.25,2.25,0,0,1-.2.93,2,2,0,0,1-.63.75A2.73,2.73,0,0,1,97,51a5.19,5.19,0,0,1-1.29.15,10.7,10.7,0,0,1-3.8-.73,9.35,9.35,0,0,1-3.49-2.34l-4.68,4a12.24,12.24,0,0,0,4.75,3.39,17.47,17.47,0,0,0,6.77,1.24,13.3,13.3,0,0,0,5.56-1.11,9.58,9.58,0,0,0,3.87-3.07,7.72,7.72,0,0,0,1-7A5.73,5.73,0,0,0,104.42,43.6Z"/><polygon class="cls-2" points="120.46 22.87 112.87 22.87 112.87 29.61 108.04 29.61 108.04 36.35 112.87 36.35 112.87 56.27 120.46 56.27 120.46 36.35 125.8 36.35 125.8 29.61 120.46 29.61 120.46 22.87"/><path class="cls-2" d="M147.17,45.56a4.74,4.74,0,0,1-.4,2,5.19,5.19,0,0,1-1.06,1.56,4.36,4.36,0,0,1-1.58,1,5.76,5.76,0,0,1-2.09.36,4.63,4.63,0,0,1-2.51-.66,4.26,4.26,0,0,1-1.64-1.88,7.1,7.1,0,0,1-.58-3V29.61h-7.59V46.06a13.42,13.42,0,0,0,1.13,5.76,8.38,8.38,0,0,0,3.22,3.67,9.43,9.43,0,0,0,5.05,1.29,10.36,10.36,0,0,0,4.18-.86,10.1,10.1,0,0,0,3.37-2.36,11.15,11.15,0,0,0,.71-.86l.2,3.57h7.19V29.61h-7.6Z"/><path class="cls-2" d="M176.8,29.06a8.12,8.12,0,0,0-3.87,1,10.6,10.6,0,0,0-3.25,2.66,11.72,11.72,0,0,0-.78,1.11l-.15-4.2h-7.24V56.27h7.65V42.69a5.87,5.87,0,0,1,.4-2.21,5.58,5.58,0,0,1,1.1-1.76,4.59,4.59,0,0,1,1.72-1.16,5.58,5.58,0,0,1,2.11-.4,7.51,7.51,0,0,1,1.88.22,6.35,6.35,0,0,1,1.44.53l2.06-8.35a11.51,11.51,0,0,0-1.38-.35A8.93,8.93,0,0,0,176.8,29.06Z"/><path class="cls-2" d="M187.77,16.18a4.78,4.78,0,0,0-3.35,1.13,3.76,3.76,0,0,0-1.23,2.89,3.72,3.72,0,0,0,1.21,3,5.06,5.06,0,0,0,3.37,1,4.79,4.79,0,0,0,3.34-1.11,3.75,3.75,0,0,0,1.24-2.92,3.74,3.74,0,0,0-1.21-3A4.93,4.93,0,0,0,187.77,16.18Z"/><rect class="cls-2" x="183.99" y="29.61" width="7.6" height="26.66"/><path class="cls-2" d="M219.64,32.86a12.06,12.06,0,0,0-4-2.8,12.66,12.66,0,0,0-5.06-1,14.07,14.07,0,0,0-5.45,1A12.47,12.47,0,0,0,200.8,33,13.3,13.3,0,0,0,198,37.46a15.32,15.32,0,0,0-1,5.63,13.8,13.8,0,0,0,1.81,7.07A12.84,12.84,0,0,0,203.84,55a15.65,15.65,0,0,0,7.62,1.77,15.34,15.34,0,0,0,3.65-.46A18,18,0,0,0,218.7,55,16,16,0,0,0,222,52.85l-3.62-5.08a10.59,10.59,0,0,1-3,1.81,9.06,9.06,0,0,1-3.15.5,9.43,9.43,0,0,1-4.35-.93,6.58,6.58,0,0,1-2.81-2.64,7.11,7.11,0,0,1-.75-1.91H223l.05-2.16a14.71,14.71,0,0,0-.85-5.36A12.41,12.41,0,0,0,219.64,32.86Zm-3.7,7.31H204.36a7.34,7.34,0,0,1,.51-1.5,5.34,5.34,0,0,1,2.21-2.39,7.1,7.1,0,0,1,3.58-.83,5.67,5.67,0,0,1,2.59.6,5.31,5.31,0,0,1,1.91,1.63,4.36,4.36,0,0,1,.78,2.34Z"/><path class="cls-2" d="M247.28,45.63a5.76,5.76,0,0,0-1.26-2,9.28,9.28,0,0,0-2.69-1.89,22.9,22.9,0,0,0-4.1-1.48c-1.28-.34-2.27-.64-3-.91a10.79,10.79,0,0,1-1.58-.7,1.94,1.94,0,0,1-.8-.78,2.85,2.85,0,0,1-.31-1,2,2,0,0,1,.23-.93,2.24,2.24,0,0,1,.65-.73,2.74,2.74,0,0,1,1.06-.42,6.9,6.9,0,0,1,1.43-.13,7.08,7.08,0,0,1,2.19.4,11.44,11.44,0,0,1,2.32,1.11,14.66,14.66,0,0,1,2,1.51l4-4.48a12,12,0,0,0-3-2.16,17.39,17.39,0,0,0-3.69-1.41,16.87,16.87,0,0,0-4.13-.5,13.3,13.3,0,0,0-3.95.58,11.28,11.28,0,0,0-3.37,1.66A7.9,7.9,0,0,0,227,33.86a6.79,6.79,0,0,0-.83,3.35,7.56,7.56,0,0,0,.5,2.81,7.41,7.41,0,0,0,1.51,2.32,9.68,9.68,0,0,0,2.82,2,23.8,23.8,0,0,0,4.22,1.51,28.15,28.15,0,0,1,2.72.78,14.26,14.26,0,0,1,1.56.63,1.92,1.92,0,0,1,.86,1.66,2.11,2.11,0,0,1-.21.93,2,2,0,0,1-.63.75,2.73,2.73,0,0,1-1,.48,5.11,5.11,0,0,1-1.28.15,10.66,10.66,0,0,1-3.8-.73,9.38,9.38,0,0,1-3.5-2.34l-4.68,4a12.27,12.27,0,0,0,4.76,3.39,17.38,17.38,0,0,0,6.76,1.24,13.27,13.27,0,0,0,5.56-1.11,9.61,9.61,0,0,0,3.88-3.07,7.81,7.81,0,0,0,1-7Z"/></g></svg>