<svg width="22" height="16" viewBox="0 0 22 16" fill="none" xmlns="http://www.w3.org/2000/svg">
<path d="M0.5 15.904V13.549C0.5 12.9818 0.6354 12.4879 0.906201 12.0672C1.17716 11.6464 1.55768 11.3212 2.04778 11.0914C3.06137 10.624 4.02923 10.269 4.95135 10.0264C5.87348 9.78386 6.89058 9.66258 8.00266 9.66258C9.11286 9.66258 10.1256 9.78386 11.0409 10.0264C11.9561 10.269 12.9227 10.6241 13.9407 11.0919C14.418 11.3185 14.7958 11.6426 15.0741 12.0642C15.3524 12.4858 15.4915 12.9807 15.4915 13.549V15.904H0.5ZM17.2221 15.904V13.4661C17.2221 12.7266 17.0491 12.0303 16.7031 11.3771C16.3571 10.7239 15.8624 10.1762 15.219 9.73399C16.1071 9.85495 16.9478 10.0272 17.7412 10.2507C18.5345 10.4742 19.2307 10.7423 19.8295 11.0551C20.3471 11.3401 20.7549 11.6941 21.0528 12.1169C21.3509 12.5397 21.5 12.9894 21.5 13.4661V15.904H17.2221ZM7.99493 7.70134C6.96324 7.70134 6.10471 7.35867 5.41936 6.67332C4.73385 5.98781 4.3911 5.13186 4.3911 4.10547C4.3911 3.07908 4.73385 2.22157 5.41936 1.53294C6.10471 0.844315 6.96058 0.5 7.98697 0.5C9.01336 0.5 9.87087 0.843768 10.5595 1.53131C11.2481 2.21869 11.5924 3.07417 11.5924 4.09775C11.5924 5.12928 11.2488 5.98781 10.5614 6.67332C9.87384 7.35867 9.01836 7.70134 7.99493 7.70134ZM16.9405 4.09775C16.9405 5.12928 16.5969 5.98781 15.9096 6.67332C15.2223 7.35867 14.3662 7.70134 13.3413 7.70134C13.1828 7.70134 12.9918 7.68737 12.7684 7.65944C12.5451 7.63134 12.3598 7.58928 12.2126 7.53325C12.5796 7.07546 12.8538 6.55672 13.0353 5.97704C13.2169 5.39751 13.3076 4.77326 13.3076 4.1043C13.3076 3.43534 13.2138 2.82069 13.0262 2.26036C12.8388 1.70003 12.5676 1.16732 12.2126 0.662246C12.3837 0.612768 12.5715 0.573358 12.7762 0.544015C12.9809 0.514672 13.1689 0.5 13.3399 0.5C14.3655 0.5 15.222 0.843768 15.9094 1.53131C16.5968 2.21869 16.9405 3.07417 16.9405 4.09775ZM2.08243 14.3216H13.9091V13.549C13.9091 13.3172 13.8566 13.1124 13.7517 12.9347C13.647 12.7567 13.4867 12.6177 13.2709 12.5177C12.3348 12.0802 11.4584 11.7587 10.6417 11.5533C9.82475 11.3478 8.94117 11.245 7.99095 11.245C7.04058 11.245 6.15544 11.3478 5.33555 11.5533C4.5155 11.7587 3.64261 12.0802 2.7169 12.5177C2.50119 12.6177 2.34152 12.7567 2.23788 12.9347C2.13425 13.1124 2.08243 13.3172 2.08243 13.549V14.3216ZM7.98814 6.11892C8.55721 6.11892 9.03646 5.92545 9.42588 5.53853C9.81531 5.15145 10.01 4.67337 10.01 4.1043C10.01 3.53523 9.81437 3.05598 9.42307 2.66656C9.03178 2.27714 8.5516 2.08243 7.98252 2.08243C7.41345 2.08243 6.93631 2.27815 6.55111 2.6696C6.16605 3.0609 5.97353 3.54108 5.97353 4.11015C5.97353 4.67923 6.16707 5.15629 6.55415 5.54134C6.94107 5.92639 7.41907 6.11892 7.98814 6.11892Z" fill="currentColor"/>
</svg>
