<svg width="22" height="19" viewBox="0 0 22 19" fill="none" xmlns="http://www.w3.org/2000/svg">
<path d="M4.53154 18.911C3.3977 18.911 2.44236 18.5226 1.66552 17.7457C0.888507 16.9687 0.5 16.0133 0.5 14.8795C0.5 13.7456 0.888507 12.7903 1.66552 12.0134C2.44236 11.2364 3.3977 10.8479 4.53154 10.8479C5.66538 10.8479 6.62081 11.2364 7.39783 12.0134C8.17467 12.7903 8.56309 13.7456 8.56309 14.8795C8.56309 16.0133 8.17467 16.9687 7.39783 17.7457C6.62081 18.5226 5.66538 18.911 4.53154 18.911ZM17.4719 18.911C16.3401 18.911 15.3847 18.5226 14.6056 17.7457C13.8265 16.9687 13.4369 16.0133 13.4369 14.8795C13.4369 13.7456 13.8265 12.7903 14.6056 12.0134C15.3847 11.2364 16.3401 10.8479 17.4719 10.8479C18.6034 10.8479 19.5576 11.2364 20.3345 12.0134C21.1115 12.7903 21.5 13.7456 21.5 14.8795C21.5 16.0133 21.1115 16.9687 20.3345 17.7457C19.5576 18.5226 18.6034 18.911 17.4719 18.911ZM4.5305 17.1463C5.15921 17.1463 5.69437 16.9259 6.13596 16.4852C6.57756 16.0443 6.79836 15.5095 6.79836 14.8808C6.79836 14.2519 6.57799 13.7166 6.13727 13.275C5.69637 12.8334 5.16156 12.6126 4.53285 12.6126C3.90396 12.6126 3.36872 12.8331 2.92712 13.274C2.48553 13.7147 2.26473 14.2495 2.26473 14.8784C2.26473 15.5071 2.48518 16.0423 2.92608 16.4839C3.36681 16.9255 3.90161 17.1463 4.5305 17.1463ZM17.4672 17.1463C18.096 17.1463 18.6313 16.9259 19.0729 16.4852C19.5145 16.0443 19.7353 15.5095 19.7353 14.8808C19.7353 14.2519 19.5148 13.7166 19.0739 13.275C18.6332 12.8334 18.0995 12.6126 17.4729 12.6126C16.8464 12.6126 16.3113 12.8331 15.8674 13.274C15.4236 13.7147 15.2016 14.2495 15.2016 14.8784C15.2016 15.5071 15.4231 16.0423 15.8659 16.4839C16.3087 16.9255 16.8424 17.1463 17.4672 17.1463ZM11.0087 8.06283C9.87717 8.06283 8.92174 7.67327 8.14246 6.89417C7.36336 6.11507 6.97381 5.15973 6.97381 4.02815C6.97381 2.8964 7.36336 1.9421 8.14246 1.16526C8.92174 0.38842 9.87717 0 11.0087 0C12.1403 0 13.0946 0.38842 13.8716 1.16526C14.6485 1.9421 15.0369 2.8964 15.0369 4.02815C15.0369 5.15973 14.6485 6.11507 13.8716 6.89417C13.0946 7.67327 12.1403 8.06283 11.0087 8.06283ZM11.004 6.29836C11.6329 6.29836 12.1682 6.07695 12.6098 5.63414C13.0514 5.19115 13.2722 4.6573 13.2722 4.03259C13.2722 3.40387 13.0517 2.86872 12.6108 2.42712C12.1701 1.98535 11.6364 1.76447 11.0098 1.76447C10.3833 1.76447 9.84819 1.98492 9.40433 2.42582C8.96047 2.86672 8.73854 3.40039 8.73854 4.02684C8.73854 4.65347 8.95995 5.18871 9.40276 5.63257C9.84558 6.07643 10.3793 6.29836 11.004 6.29836Z" fill="#CE0E71"/>
</svg>
