<svg width="22" height="11" viewBox="0 0 22 11" fill="none" xmlns="http://www.w3.org/2000/svg">
<path d="M10.0101 10.5H5.65503C4.20255 10.5 2.96443 9.98777 1.94067 8.96331C0.916909 7.93902 0.405029 6.70011 0.405029 5.24657C0.405029 3.79321 0.916909 2.55544 1.94067 1.53326C2.96443 0.511088 4.20255 0 5.65503 0H10.0101V1.78432H5.65503C4.69304 1.78432 3.87493 2.121 3.2007 2.79435C2.52647 3.46788 2.18935 4.28502 2.18935 5.24578C2.18935 6.20671 2.52647 7.02525 3.2007 7.70143C3.87493 8.3776 4.69304 8.71568 5.65503 8.71568H10.0101V10.5ZM6.79099 6.1246V4.34028H15.2155V6.1246H6.79099ZM11.9895 10.5V8.71568H16.3446C17.3066 8.71568 18.1247 8.379 18.7989 7.70565C19.4731 7.03212 19.8103 6.21498 19.8103 5.25422C19.8103 4.29329 19.4731 3.47475 18.7989 2.79857C18.1247 2.1224 17.3066 1.78432 16.3446 1.78432H11.9895V0H16.3446C17.7971 0 19.0352 0.512232 20.0589 1.5367C21.0827 2.56098 21.5946 3.79989 21.5946 5.25343C21.5946 6.70679 21.0827 7.94456 20.0589 8.96674C19.0352 9.98891 17.7971 10.5 16.3446 10.5H11.9895Z" fill="#CE0E71"/>
</svg>
