<svg width="14" height="14" viewBox="0 0 14 14" fill="none" xmlns="http://www.w3.org/2000/svg">
<path d="M6.99352 14C4.99173 14 3.32569 13.6952 1.99541 13.0857C0.665138 12.4762 0 11.7141 0 10.7995V3.13902C0 2.27194 0.681317 1.53203 2.04395 0.919295C3.40658 0.306432 5.05644 0 6.99352 0C8.91333 0 10.5611 0.307463 11.9367 0.922389C13.3122 1.53744 14 2.27632 14 3.13902V10.7995C14 11.7141 13.3284 12.4762 11.9852 13.0857C10.6421 13.6952 8.97817 14 6.99352 14ZM6.99352 4.4381C8.05462 4.4381 9.14905 4.2836 10.2768 3.97459C11.4047 3.66545 12.1637 3.3061 12.5538 2.89653C12.1643 2.48568 11.4035 2.11801 10.2712 1.79353C9.13893 1.46918 8.04637 1.30701 6.99352 1.30701C5.90303 1.30701 4.79326 1.46557 3.66422 1.7827C2.53531 2.09984 1.78838 2.46118 1.42342 2.86675C1.79624 3.29088 2.53583 3.65881 3.64218 3.97052C4.74853 4.28224 5.86564 4.4381 6.99352 4.4381ZM6.98559 8.56197C7.49636 8.56197 8.00976 8.52974 8.52581 8.46528C9.04198 8.40083 9.54765 8.30453 10.0428 8.17638C10.538 8.04824 11.0088 7.8918 11.4552 7.70707C11.9016 7.52233 12.3142 7.31478 12.693 7.08441V4.34277C12.3056 4.55935 11.8863 4.75465 11.4351 4.92869C10.9839 5.10272 10.5118 5.24949 10.0188 5.369C9.52587 5.4885 9.02258 5.57855 8.50898 5.63914C7.99552 5.69986 7.48772 5.73022 6.98559 5.73022C6.4564 5.73022 5.9301 5.69863 5.4067 5.63546C4.88318 5.5723 4.37751 5.48096 3.88969 5.36146C3.40175 5.24195 2.93946 5.09647 2.50282 4.92501C2.06619 4.75343 1.66752 4.55935 1.30681 4.34277V7.08441C1.69859 7.31903 2.11769 7.52749 2.56412 7.70977C3.01043 7.89206 3.47646 8.04702 3.96221 8.17464C4.44796 8.30227 4.94313 8.3987 5.4477 8.46393C5.9524 8.52929 6.46503 8.56197 6.98559 8.56197ZM6.99352 12.6932C7.63513 12.6932 8.27036 12.6459 8.89921 12.5513C9.52806 12.4568 10.1019 12.3293 10.6208 12.169C11.1396 12.0087 11.5842 11.8191 11.9547 11.6002C12.3253 11.3815 12.5714 11.1563 12.693 10.9246V8.4765C12.2971 8.69308 11.8705 8.88948 11.4133 9.06571C10.9561 9.2418 10.48 9.38748 9.98481 9.50273C9.48964 9.61785 8.98855 9.70764 8.48153 9.7721C7.9745 9.83655 7.47586 9.86878 6.98559 9.86878C6.48218 9.86878 5.98463 9.83939 5.49295 9.7806C5.00127 9.72182 4.5168 9.63371 4.03956 9.51626C3.56244 9.39895 3.09506 9.25392 2.63741 9.08118C2.17976 8.90856 1.73623 8.707 1.30681 8.4765V10.9364C1.41033 11.1764 1.64212 11.4009 2.00218 11.6099C2.36237 11.819 2.8032 12.0046 3.32466 12.1666C3.84612 12.3286 4.42514 12.4568 5.06173 12.5513C5.69844 12.6459 6.34237 12.6932 6.99352 12.6932Z" fill="#CE0E71"/>
</svg>
