<svg width="14" height="12" viewBox="0 0 14 12" fill="none" xmlns="http://www.w3.org/2000/svg">
<path d="M0.725613 3.94579V1.26173C0.725613 0.919479 0.850313 0.623654 1.09971 0.374256C1.34911 0.124752 1.64499 0 1.98734 0H12.0127C12.355 0 12.6509 0.124752 12.9003 0.374256C13.1497 0.623654 13.2744 0.919479 13.2744 1.26173V3.94579H12.207V1.26173C12.207 1.21309 12.1868 1.16856 12.1464 1.12814C12.1059 1.0876 12.0613 1.06734 12.0127 1.06734H1.98734C1.93871 1.06734 1.89412 1.0876 1.85359 1.12814C1.81317 1.16856 1.79295 1.21309 1.79295 1.26173V3.94579H0.725613ZM1.98734 9.47482C1.64499 9.47482 1.34911 9.35433 1.09971 9.11336C0.850313 8.87238 0.725613 8.57935 0.725613 8.23425V5.01313H1.79295V8.21309C1.79295 8.26173 1.81317 8.30631 1.85359 8.34685C1.89412 8.38727 1.93871 8.40749 1.98734 8.40749H12.0127C12.0613 8.40749 12.1059 8.38727 12.1464 8.34685C12.1868 8.30631 12.207 8.26173 12.207 8.21309V5.01313H13.2744V8.23425C13.2744 8.57935 13.1497 8.87238 12.9003 9.11336C12.6509 9.35433 12.355 9.47482 12.0127 9.47482H1.98734ZM0 11.3276V10.2603H14V11.3276H0ZM0.725613 5.01313V3.94579H4.47338C4.57065 3.94579 4.66319 3.97221 4.75099 4.02506C4.83879 4.07781 4.9078 4.1495 4.95802 4.24014L5.77238 5.91008L7.76004 2.37029C7.80752 2.27122 7.87663 2.20074 7.96738 2.15884C8.05813 2.11683 8.15556 2.09583 8.25968 2.09583C8.36369 2.09583 8.46023 2.11683 8.54929 2.15884C8.63846 2.20074 8.70468 2.26501 8.74795 2.35165L9.53436 3.94579H13.2744V5.01313H9.26385C9.13836 5.01313 9.0234 4.98244 8.91897 4.92107C8.81464 4.85969 8.73873 4.77757 8.69126 4.67472L8.22651 3.74777L6.23791 7.23734C6.18969 7.32935 6.12105 7.40278 6.03199 7.45763C5.94292 7.51238 5.84933 7.53975 5.75122 7.53975C5.64268 7.53975 5.54488 7.51511 5.45781 7.46585C5.37086 7.41658 5.30227 7.34662 5.25205 7.25598L4.1386 5.01313H0.725613Z" fill="#CE0E71"/>
</svg>
