<svg width="13" height="14" viewBox="0 0 13 14" fill="none" xmlns="http://www.w3.org/2000/svg">
<path d="M1.92124 14C1.39088 14 0.938089 13.8124 0.562854 13.4371C0.187618 13.0619 0 12.6075 0 12.0739V9.63863H2.13961V0H12.6046V12.0788C12.6046 12.6091 12.417 13.0619 12.0418 13.4371C11.6666 13.8124 11.2153 14 10.6879 14H1.92124ZM10.6869 12.8211C10.8956 12.8211 11.071 12.75 11.2129 12.6078C11.3548 12.4655 11.4257 12.2891 11.4257 12.0788V1.17891H3.31834V9.63863H9.94543V12.081C9.94543 12.2907 10.0165 12.4664 10.1586 12.6083C10.3007 12.7502 10.4768 12.8211 10.6869 12.8211ZM4.32021 4.1198V2.9409H10.424V4.1198H4.32021ZM4.32021 6.43471V5.2558H10.424V6.43471H4.32021ZM1.90746 12.8211H8.76653V10.8175H1.17891V12.0788C1.17891 12.2891 1.25007 12.4655 1.3924 12.6078C1.53472 12.75 1.70641 12.8211 1.90746 12.8211ZM1.91112 12.8211H1.17891H8.76653H1.91112Z" fill="#CE0E71"/>
</svg>
