<svg width="14" height="10" viewBox="0 0 14 10" xmlns="http://www.w3.org/2000/svg">
<path d="M4.08903 2.36606C3.90719 2.36606 3.75479 2.30207 3.63183 2.17408C3.50888 2.04596 3.4474 1.89265 3.4474 1.71417C3.4474 1.53568 3.50888 1.3847 3.63183 1.26123C3.75479 1.13789 3.90719 1.07622 4.08903 1.07622H13.3582C13.54 1.07622 13.6925 1.13782 13.8156 1.26104C13.9385 1.38425 14 1.53697 14 1.7192C14 1.89769 13.9385 2.05016 13.8156 2.1766C13.6925 2.30291 13.54 2.36606 13.3582 2.36606H4.08903ZM4.08903 5.65112C3.90719 5.65112 3.75479 5.58616 3.63183 5.45623C3.50888 5.32643 3.4474 5.17106 3.4474 4.99012C3.4474 4.80905 3.50888 4.65678 3.63183 4.53331C3.75479 4.40984 3.90719 4.3481 4.08903 4.3481H13.3582C13.54 4.3481 13.6925 4.41022 13.8156 4.53447C13.9385 4.65871 14 4.8126 14 4.99612C14 5.17978 13.9385 5.33483 13.8156 5.46127C13.6925 5.58784 13.54 5.65112 13.3582 5.65112H4.08903ZM4.08903 8.92301C3.90719 8.92301 3.75479 8.85901 3.63183 8.73102C3.50888 8.6029 3.4474 8.4496 3.4474 8.27111C3.4474 8.09262 3.50888 7.94164 3.63183 7.81817C3.75479 7.69483 3.90719 7.63316 4.08903 7.63316H13.3582C13.54 7.63316 13.6925 7.69477 13.8156 7.81798C13.9385 7.94119 14 8.09391 14 8.27615C14 8.45463 13.9385 8.6071 13.8156 8.73354C13.6925 8.85985 13.54 8.92301 13.3582 8.92301H4.08903ZM0.73152 2.48831C0.522292 2.48831 0.348066 2.41333 0.20884 2.26339C0.0696132 2.11331 0 1.93424 0 1.72618C0 1.5225 0.0696132 1.34828 0.20884 1.2035C0.348195 1.05872 0.524617 0.986328 0.738106 0.986328C0.934547 0.986328 1.10238 1.05852 1.24161 1.20292C1.38083 1.34744 1.45045 1.52644 1.45045 1.73993C1.45045 1.93883 1.38025 2.11331 1.23986 2.26339C1.09948 2.41333 0.930027 2.48831 0.73152 2.48831ZM0.73152 5.74644C0.522292 5.74644 0.348066 5.67521 0.20884 5.53275C0.0696132 5.39043 0 5.21594 0 5.0093C0 4.80085 0.0696132 4.62126 0.20884 4.47054C0.348195 4.31969 0.524617 4.24426 0.738106 4.24426C0.934547 4.24426 1.10238 4.3202 1.24161 4.47209C1.38083 4.62397 1.45045 4.80601 1.45045 5.01821C1.45045 5.21891 1.38025 5.39049 1.23986 5.53295C1.09948 5.67527 0.930027 5.74644 0.73152 5.74644ZM0.73152 9.0129C0.522292 9.0129 0.348066 8.93792 0.20884 8.78798C0.0696132 8.6379 0 8.45767 0 8.24728C0 8.04115 0.0696132 7.86686 0.20884 7.72441C0.348195 7.58208 0.524617 7.51092 0.738106 7.51092C0.934547 7.51092 1.10238 7.5835 1.24161 7.72867C1.38083 7.87396 1.45045 8.04819 1.45045 8.25135C1.45045 8.45903 1.38025 8.6379 1.23986 8.78798C1.09948 8.93792 0.930027 9.0129 0.73152 9.0129Z" fill="#CE0E71"/>
</svg>
