<svg width="18" height="18" viewBox="0 0 18 18" fill="none" xmlns="http://www.w3.org/2000/svg">
<path d="M2.71334 17.2005C2.12645 17.2005 1.62765 16.995 1.21693 16.5841C0.806035 16.1734 0.600586 15.6746 0.600586 15.0877V12.8911C0.600586 12.7008 0.671857 12.5358 0.814398 12.3963C0.956939 12.2569 1.12578 12.1872 1.32091 12.1872C1.51586 12.1872 1.68228 12.2569 1.82018 12.3963C1.95826 12.5358 2.0273 12.7008 2.0273 12.8911V15.0877C2.0273 15.2593 2.09876 15.4165 2.24167 15.5594C2.38458 15.7023 2.54181 15.7738 2.71334 15.7738H15.2878C15.4594 15.7738 15.6166 15.7023 15.7595 15.5594C15.9024 15.4165 15.9739 15.2593 15.9739 15.0877V12.8911C15.9739 12.7008 16.0452 12.5358 16.188 12.3963C16.3305 12.2569 16.4992 12.1872 16.6942 12.1872C16.8893 12.1872 17.0558 12.2569 17.1937 12.3963C17.3316 12.5358 17.4006 12.7008 17.4006 12.8911V15.0877C17.4006 15.6746 17.1951 16.1734 16.7842 16.5841C16.3735 16.995 15.8747 17.2005 15.2878 17.2005H2.71334ZM8.26855 3.13013L5.86783 5.53113C5.72845 5.67125 5.56407 5.74606 5.3747 5.75553C5.18533 5.76501 5.0111 5.69737 4.85202 5.55259C4.69833 5.39649 4.62492 5.22059 4.63179 5.02489C4.63848 4.8292 4.71431 4.65888 4.85927 4.51392L8.24513 1.12777C8.34084 1.03225 8.45031 0.953822 8.57352 0.892494C8.69673 0.831352 8.83742 0.800781 8.99557 0.800781C9.13811 0.800781 9.27034 0.831352 9.39225 0.892494C9.51435 0.953822 9.62297 1.03206 9.71812 1.12721L13.109 4.5181C13.2491 4.65823 13.324 4.82548 13.3337 5.01988C13.3432 5.21445 13.2708 5.38273 13.1165 5.52472C12.9573 5.66949 12.786 5.74067 12.6028 5.73825C12.4195 5.73602 12.2507 5.65769 12.0963 5.50325L9.69527 3.13013V12.2365C9.69527 12.4389 9.62511 12.61 9.4848 12.7497C9.34449 12.8893 9.17686 12.9591 8.98191 12.9591C8.78696 12.9591 8.61933 12.8893 8.47902 12.7497C8.33871 12.61 8.26855 12.4389 8.26855 12.2365V3.13013Z" fill="#CE0E71"/>
</svg>
