<svg width="17" height="22" viewBox="0 0 17 22" fill="none" xmlns="http://www.w3.org/2000/svg">
<path d="M2.09042 21.5C1.52338 21.5 1.03318 21.2934 0.619802 20.8802C0.206601 20.467 0 19.9768 0 19.4096V2.59042C0 2.02321 0.206601 1.533 0.619802 1.1198C1.03318 0.706601 1.52338 0.5 2.09042 0.5H10.7831L16.7443 6.43482V19.4096C16.7443 19.9768 16.5377 20.467 16.1245 20.8802C15.7112 21.2934 15.2209 21.5 14.6539 21.5H2.09042ZM9.91657 7.28878V2.26836H2.09042C2.00984 2.26836 1.93606 2.30185 1.86909 2.36882C1.80193 2.43598 1.76836 2.50984 1.76836 2.59042V19.4096C1.76836 19.4902 1.80193 19.564 1.86909 19.6312C1.93606 19.6982 2.00984 19.7316 2.09042 19.7316H14.6539C14.7345 19.7316 14.8083 19.6982 14.8752 19.6312C14.9424 19.564 14.976 19.4902 14.976 19.4096V7.28878H9.91657Z" fill="#CE0E71"/>
</svg>
