<svg width="17" height="22" viewBox="0 0 17 22" fill="none" xmlns="http://www.w3.org/2000/svg">
<path d="M7.24172 14.5839L13.2015 8.63085L11.9638 7.39731L7.28069 12.0802L4.80445 9.58641L3.53849 10.8524L7.24172 14.5839ZM8.36883 21.5C5.9537 20.8785 3.95507 19.4697 2.37294 17.2737C0.790979 15.0776 0 12.6436 0 9.97187V3.65354L8.36831 0.5L16.7366 3.65354V9.96063C16.7366 12.6418 15.9458 15.0799 14.3642 17.2751C12.7826 19.4702 10.7841 20.8785 8.36883 21.5ZM8.36831 19.6694C10.2852 19.0307 11.8645 17.8104 13.1063 16.0086C14.3482 14.2068 14.9691 12.1937 14.9691 9.96952V4.86852L8.36831 2.38548L1.76754 4.86852V9.96952C1.76754 12.1937 2.38845 14.2068 3.63028 16.0086C4.8721 17.8104 6.45144 19.0307 8.36831 19.6694Z" fill="currentColor"/>
</svg>
